<svg xmlns="http://www.w3.org/2000/svg" xmlns:xlink="http://www.w3.org/1999/xlink" xmlns:lucid="lucid" width="722" height="1186"><g transform="translate(-1979 -754)" lucid:page-tab-id="0_0"><path d="M2420 786a6 6 0 0 1 6-6h148a6 6 0 0 1 6 6v68a6 6 0 0 1-6 6h-148a6 6 0 0 1-6-6z" stroke="#282c33" stroke-width="2" fill="#dedeff"/><use xlink:href="#a" transform="matrix(1,0,0,1,2425,785) translate(23.827160493827165 26.52777777777778)"/><use xlink:href="#b" transform="matrix(1,0,0,1,2425,785) translate(78.08641975308643 26.52777777777778)"/><use xlink:href="#c" transform="matrix(1,0,0,1,2425,785) translate(37.438271604938265 53.19444444444445)"/><path d="M2160 781a6 6 0 0 1 6-6h148a6 6 0 0 1 6 6v78a6 6 0 0 1-6 6h-148a6 6 0 0 1-6-6z" stroke="#282c33" stroke-width="2" fill="#dedeff"/><use xlink:href="#d" transform="matrix(1,0,0,1,2165,780) translate(50.95679012345679 20.27777777777778)"/><use xlink:href="#e" transform="matrix(1,0,0,1,2165,780) translate(18.919753086419746 46.94444444444444)"/><use xlink:href="#c" transform="matrix(1,0,0,1,2165,780) translate(37.438271604938265 73.61111111111111)"/><path d="M2420 946a6 6 0 0 1 6-6h148a6 6 0 0 1 6 6v88a6 6 0 0 1-6 6h-148a6 6 0 0 1-6-6z" stroke="#282c33" stroke-width="2" fill="#f4d9ff"/><use xlink:href="#f" transform="matrix(1,0,0,1,2425,945) translate(23.796296296296298 48.71527777777778)"/><use xlink:href="#g" transform="matrix(1,0,0,1,2425,945) translate(90.40123456790124 48.71527777777778)"/><path d="M2240 866.5v56.12" stroke="#dedeff" fill="none"/><path d="M2240.47 866.5h-.94v-.5h.94z" stroke="#dedeff" stroke-width=".05" fill="#dedeff"/><path d="M2240 937.38l-4.64-14.26h9.28z" stroke="#dedeff" fill="#dedeff"/><path d="M2500 861.5v61.12" stroke="#dedeff" fill="none"/><path d="M2500.47 861.5h-.94v-.5h.94z" stroke="#dedeff" stroke-width=".05" fill="#dedeff"/><path d="M2500 937.38l-4.64-14.26h9.28z" stroke="#dedeff" fill="#dedeff"/><path d="M2500 1041.5v30a6 6 0 0 1-6 6h-73.95a6 6 0 0 0-6 6v14.12" stroke="#f4d9ff" fill="none"/><path d="M2500.47 1041.5h-.94v-.5h.94z" stroke="#f4d9ff" stroke-width=".05" fill="#f4d9ff"/><path d="M2414.05 1112.38l-4.64-14.26h9.28z" stroke="#f4d9ff" fill="#f4d9ff"/><path d="M2300 1121a6 6 0 0 1 6-6h148a6 6 0 0 1 6 6v88a6 6 0 0 1-6 6h-148a6 6 0 0 1-6-6z" stroke="#282c33" stroke-width="2" fill="#f4d9ff"/><use xlink:href="#f" transform="matrix(1,0,0,1,2305,1120) translate(23.179012345679013 48.71527777777778)"/><use xlink:href="#h" transform="matrix(1,0,0,1,2305,1120) translate(89.78395061728395 48.71527777777778)"/><path d="M2160 946a6 6 0 0 1 6-6h148a6 6 0 0 1 6 6v88a6 6 0 0 1-6 6h-148a6 6 0 0 1-6-6z" stroke="#282c33" stroke-width="2" fill="#f4d9ff"/><use xlink:href="#f" transform="matrix(1,0,0,1,2165,945) translate(7.746913580246911 48.71527777777778)"/><use xlink:href="#i" transform="matrix(1,0,0,1,2165,945) translate(74.35185185185185 48.71527777777778)"/><path d="M2240 1041.5v30a6 6 0 0 0 6 6h86.5a6 6 0 0 1 6 6v14.12" stroke="#f4d9ff" fill="none"/><path d="M2240.47 1041.5h-.94v-.5h.94z" stroke="#f4d9ff" stroke-width=".05" fill="#f4d9ff"/><path d="M2338.5 1112.38l-4.64-14.26h9.28z" stroke="#f4d9ff" fill="#f4d9ff"/><path d="M2160 1306a6 6 0 0 1 6-6h148a6 6 0 0 1 6 6v88a6 6 0 0 1-6 6h-148a6 6 0 0 1-6-6z" stroke="#282c33" stroke-width="2" fill="#f4d9ff"/><use xlink:href="#j" transform="matrix(1,0,0,1,2165,1305) translate(44.78395061728395 23.40277777777778)"/><use xlink:href="#k" transform="matrix(1,0,0,1,2165,1305) translate(26.97530864197531 50.06944444444445)"/><use xlink:href="#l" transform="matrix(1,0,0,1,2165,1305) translate(20.092592592592588 76.73611111111111)"/><path d="M2380 1216.5v35a6 6 0 0 1-6 6h-128a6 6 0 0 0-6 6v19.12" stroke="#f4d9ff" fill="none"/><path d="M2380.47 1216.5h-.94v-.5h.94z" stroke="#f4d9ff" stroke-width=".05" fill="#f4d9ff"/><path d="M2240 1297.38l-4.64-14.26h9.28z" stroke="#f4d9ff" fill="#f4d9ff"/><path d="M2420 1306a6 6 0 0 1 6-6h148a6 6 0 0 1 6 6v88a6 6 0 0 1-6 6h-148a6 6 0 0 1-6-6z" stroke="#282c33" stroke-width="2" fill="#f4d9ff"/><use xlink:href="#j" transform="matrix(1,0,0,1,2425,1305) translate(44.78395061728395 23.40277777777778)"/><use xlink:href="#m" transform="matrix(1,0,0,1,2425,1305) translate(20.092592592592588 50.06944444444445)"/><use xlink:href="#n" transform="matrix(1,0,0,1,2425,1305) translate(1.728395061728392 76.73611111111111)"/><use xlink:href="#o" transform="matrix(1,0,0,1,2425,1305) translate(52.22222222222222 76.73611111111111)"/><path d="M2380 1216.5v35a6 6 0 0 0 6 6h67.58a6 6 0 0 1 6 6v19.12" stroke="#f4d9ff" fill="none"/><path d="M2380.47 1216.5h-.94v-.5h.94z" stroke="#f4d9ff" stroke-width=".05" fill="#f4d9ff"/><path d="M2459.58 1297.38l-4.64-14.26h9.27z" stroke="#f4d9ff" fill="#f4d9ff"/><path d="M2580 1121a6 6 0 0 1 6-6h88a6 6 0 0 1 6 6v78a6 6 0 0 1-6 6h-88a6 6 0 0 1-6-6z" stroke="#282c33" stroke-width="2" fill="#b8f5ed"/><use xlink:href="#p" transform="matrix(1,0,0,1,2585,1120) translate(12.962962962962962 45.27777777777778)"/><path d="M2630 1206.5v40a6 6 0 0 1-6 6h-82.5a6 6 0 0 0-6 6v24.12" stroke="#b8f5ed" fill="none"/><path d="M2630.47 1206.5h-.94v-.5h.94z" stroke="#b8f5ed" stroke-width=".05" fill="#b8f5ed"/><path d="M2535.5 1297.38l-4.64-14.26h9.28z" stroke="#b8f5ed" fill="#b8f5ed"/><path d="M2420 1491a6 6 0 0 1 6-6h148a6 6 0 0 1 6 6v88a6 6 0 0 1-6 6h-148a6 6 0 0 1-6-6z" stroke="#282c33" stroke-width="2" fill="#f4d9ff"/><use xlink:href="#f" transform="matrix(1,0,0,1,2425,1490) translate(16.45061728395062 48.71527777777778)"/><use xlink:href="#q" transform="matrix(1,0,0,1,2425,1490) translate(83.05555555555556 48.71527777777778)"/><path d="M2500 1400.5v67.12M2500 1400.5v-.5" stroke="#f4d9ff" fill="none"/><path d="M2500 1482.38l-4.64-14.26h9.28z" stroke="#f4d9ff" fill="#f4d9ff"/><path d="M2300 1676a6 6 0 0 1 6-6h148a6 6 0 0 1 6 6v88a6 6 0 0 1-6 6h-148a6 6 0 0 1-6-6z" stroke="#282c33" stroke-width="2" fill="#ffdda6"/><use xlink:href="#r" transform="matrix(1,0,0,1,2305,1675) translate(32.438271604938265 48.71527777777778)"/><use xlink:href="#h" transform="matrix(1,0,0,1,2305,1675) translate(80.52469135802468 48.71527777777778)"/><path d="M2240 1401.5v35a6 6 0 0 0 6 6h26.83a6 6 0 0 1 6 6v19.12" stroke="#f4d9ff" fill="none"/><path d="M2240.47 1401.5h-.94v-.5h.94z" stroke="#f4d9ff" stroke-width=".05" fill="#f4d9ff"/><path d="M2278.83 1482.38l-4.63-14.26h9.27z" stroke="#f4d9ff" fill="#f4d9ff"/><path d="M2500 1586.5v37.5a6 6 0 0 1-6 6h-73.33a6 6 0 0 0-6 6v16.62" stroke="#f4d9ff" fill="none"/><path d="M2500.47 1586.5h-.94v-.5h.94z" stroke="#f4d9ff" stroke-width=".05" fill="#f4d9ff"/><path d="M2414.67 1667.38l-4.64-14.26h9.27z" stroke="#f4d9ff" fill="#f4d9ff"/><path d="M2160 1491a6 6 0 0 1 6-6h148a6 6 0 0 1 6 6v88a6 6 0 0 1-6 6h-148a6 6 0 0 1-6-6z" stroke="#282c33" stroke-width="2" fill="#ffdda6"/><use xlink:href="#r" transform="matrix(1,0,0,1,2165,1490) translate(2.9320987654321016 48.71527777777778)"/><use xlink:href="#o" transform="matrix(1,0,0,1,2165,1490) translate(51.018518518518526 48.71527777777778)"/><path d="M2000 1306a6 6 0 0 1 6-6h88a6 6 0 0 1 6 6v78a6 6 0 0 1-6 6h-88a6 6 0 0 1-6-6z" stroke="#282c33" stroke-width="2" fill="#b8f5ed"/><g><use xlink:href="#s" transform="matrix(1,0,0,1,2005,1305) translate(38.82716049382716 45.27777777777778)"/></g><path d="M2050 1391.5v40a6 6 0 0 0 6 6h131.82a6 6 0 0 1 6 6v24.12" stroke="#b8f5ed" fill="none"/><path d="M2050.47 1391.5h-.94v-.5h.94z" stroke="#b8f5ed" stroke-width=".05" fill="#b8f5ed"/><path d="M2193.82 1482.38l-4.63-14.26h9.26z" stroke="#b8f5ed" fill="#b8f5ed"/><path d="M2240 1586.5v35a6 6 0 0 0 6 6h91.8a6 6 0 0 1 6 6v19.12" stroke="#ffdda6" fill="none"/><path d="M2240.47 1586.5h-.94v-.5h.94z" stroke="#ffdda6" stroke-width=".05" fill="#ffdda6"/><path d="M2343.8 1667.38l-4.63-14.26h9.27z" stroke="#ffdda6" fill="#ffdda6"/><path d="M2300 1835a6 6 0 0 1 6-6h148a6 6 0 0 1 6 6v78a6 6 0 0 1-6 6h-148a6 6 0 0 1-6-6z" stroke="#282c33" stroke-width="2" fill="#fff7a1"/><g><use xlink:href="#t" transform="matrix(1,0,0,1,2305,1834.0000499999996) translate(44.135802469135804 20.27777777777778)"/><use xlink:href="#u" transform="matrix(1,0,0,1,2305,1834.0000499999996) translate(33.67283950617284 46.94444444444444)"/><use xlink:href="#v" transform="matrix(1,0,0,1,2305,1834.0000499999996) translate(46.69753086419753 73.61111111111111)"/></g><path d="M2380 1770.5v41.12M2380 1770.5v-.5" stroke="#ffdda6" fill="none"/><path d="M2380 1826.38l-4.64-14.26h9.28z" stroke="#ffdda6" fill="#ffdda6"/><defs><path fill="#3a414a" d="M24-231v-30h32v30H24zM24 0v-190h32V0H24" id="w"/><path fill="#3a414a" d="M117-194c89-4 53 116 60 194h-32v-121c0-31-8-49-39-48C34-167 62-67 57 0H25l-1-190h30c1 10-1 24 2 32 11-22 29-35 61-36" id="x"/><path fill="#3a414a" d="M115-194c55 1 70 41 70 98S169 2 115 4C84 4 66-9 55-30l1 105H24l-1-265h31l2 30c10-21 28-34 59-34zm-8 174c40 0 45-34 45-75s-6-73-45-74c-42 0-51 32-51 76 0 43 10 73 51 73" id="y"/><path fill="#3a414a" d="M84 4C-5 8 30-112 23-190h32v120c0 31 7 50 39 49 72-2 45-101 50-169h31l1 190h-30c-1-10 1-25-2-33-11 22-28 36-60 37" id="z"/><path fill="#3a414a" d="M59-47c-2 24 18 29 38 22v24C64 9 27 4 27-40v-127H5v-23h24l9-43h21v43h35v23H59v120" id="A"/><g id="a"><use transform="matrix(0.06172839506172839,0,0,0.06172839506172839,0,0)" xlink:href="#w"/><use transform="matrix(0.06172839506172839,0,0,0.06172839506172839,4.876543209876543,0)" xlink:href="#x"/><use transform="matrix(0.06172839506172839,0,0,0.06172839506172839,17.22222222222222,0)" xlink:href="#y"/><use transform="matrix(0.06172839506172839,0,0,0.06172839506172839,29.5679012345679,0)" xlink:href="#z"/><use transform="matrix(0.06172839506172839,0,0,0.06172839506172839,41.913580246913575,0)" xlink:href="#A"/></g><path fill="#3a414a" d="M100-194c62-1 85 37 85 99 1 63-27 99-86 99S16-35 15-95c0-66 28-99 85-99zM99-20c44 1 53-31 53-75 0-43-8-75-51-75s-53 32-53 75 10 74 51 75" id="B"/><g id="b"><use transform="matrix(0.06172839506172839,0,0,0.06172839506172839,0,0)" xlink:href="#y"/><use transform="matrix(0.06172839506172839,0,0,0.06172839506172839,12.345679012345679,0)" xlink:href="#B"/><use transform="matrix(0.06172839506172839,0,0,0.06172839506172839,24.691358024691358,0)" xlink:href="#w"/><use transform="matrix(0.06172839506172839,0,0,0.06172839506172839,29.5679012345679,0)" xlink:href="#x"/><use transform="matrix(0.06172839506172839,0,0,0.06172839506172839,41.913580246913575,0)" xlink:href="#A"/></g><path fill="#3a414a" d="M87 75C49 33 22-17 22-94c0-76 28-126 65-167h31c-38 41-64 92-64 168S80 34 118 75H87" id="C"/><path fill="#3a414a" d="M108 0H70L1-190h34L89-25l56-165h34" id="D"/><path fill="#3a414a" d="M100-194c63 0 86 42 84 106H49c0 40 14 67 53 68 26 1 43-12 49-29l28 8c-11 28-37 45-77 45C44 4 14-33 15-96c1-61 26-98 85-98zm52 81c6-60-76-77-97-28-3 7-6 17-6 28h103" id="E"/><path fill="#3a414a" d="M96-169c-40 0-48 33-48 73s9 75 48 75c24 0 41-14 43-38l32 2c-6 37-31 61-74 61-59 0-76-41-82-99-10-93 101-131 147-64 4 7 5 14 7 22l-32 3c-4-21-16-35-41-35" id="F"/><path fill="#3a414a" d="M114-163C36-179 61-72 57 0H25l-1-190h30c1 12-1 29 2 39 6-27 23-49 58-41v29" id="G"/><path fill="#3a414a" d="M33-261c38 41 65 92 65 168S71 34 33 75H2C39 34 66-17 66-93S39-220 2-261h31" id="H"/><g id="c"><use transform="matrix(0.06172839506172839,0,0,0.06172839506172839,0,0)" xlink:href="#C"/><use transform="matrix(0.06172839506172839,0,0,0.06172839506172839,7.345679012345679,0)" xlink:href="#D"/><use transform="matrix(0.06172839506172839,0,0,0.06172839506172839,18.45679012345679,0)" xlink:href="#E"/><use transform="matrix(0.06172839506172839,0,0,0.06172839506172839,30.80246913580247,0)" xlink:href="#F"/><use transform="matrix(0.06172839506172839,0,0,0.06172839506172839,41.91358024691358,0)" xlink:href="#A"/><use transform="matrix(0.06172839506172839,0,0,0.06172839506172839,48.086419753086425,0)" xlink:href="#B"/><use transform="matrix(0.06172839506172839,0,0,0.06172839506172839,60.4320987654321,0)" xlink:href="#G"/><use transform="matrix(0.06172839506172839,0,0,0.06172839506172839,67.77777777777779,0)" xlink:href="#H"/></g><g id="d"><use transform="matrix(0.06172839506172839,0,0,0.06172839506172839,0,0)" xlink:href="#w"/><use transform="matrix(0.06172839506172839,0,0,0.06172839506172839,4.876543209876543,0)" xlink:href="#x"/><use transform="matrix(0.06172839506172839,0,0,0.06172839506172839,17.22222222222222,0)" xlink:href="#y"/><use transform="matrix(0.06172839506172839,0,0,0.06172839506172839,29.5679012345679,0)" xlink:href="#z"/><use transform="matrix(0.06172839506172839,0,0,0.06172839506172839,41.913580246913575,0)" xlink:href="#A"/></g><path fill="#3a414a" d="M85-194c31 0 48 13 60 33l-1-100h32l1 261h-30c-2-10 0-23-3-31C134-8 116 4 85 4 32 4 16-35 15-94c0-66 23-100 70-100zm9 24c-40 0-46 34-46 75 0 40 6 74 45 74 42 0 51-32 51-76 0-42-9-74-50-73" id="I"/><path fill="#3a414a" d="M210-169c-67 3-38 105-44 169h-31v-121c0-29-5-50-35-48C34-165 62-65 56 0H25l-1-190h30c1 10-1 24 2 32 10-44 99-50 107 0 11-21 27-35 58-36 85-2 47 119 55 194h-31v-121c0-29-5-49-35-48" id="J"/><path fill="#3a414a" d="M135-143c-3-34-86-38-87 0 15 53 115 12 119 90S17 21 10-45l28-5c4 36 97 45 98 0-10-56-113-15-118-90-4-57 82-63 122-42 12 7 21 19 24 35" id="K"/><g id="e"><use transform="matrix(0.06172839506172839,0,0,0.06172839506172839,0,0)" xlink:href="#I"/><use transform="matrix(0.06172839506172839,0,0,0.06172839506172839,12.345679012345679,0)" xlink:href="#w"/><use transform="matrix(0.06172839506172839,0,0,0.06172839506172839,17.22222222222222,0)" xlink:href="#J"/><use transform="matrix(0.06172839506172839,0,0,0.06172839506172839,35.67901234567901,0)" xlink:href="#E"/><use transform="matrix(0.06172839506172839,0,0,0.06172839506172839,48.02469135802469,0)" xlink:href="#x"/><use transform="matrix(0.06172839506172839,0,0,0.06172839506172839,60.37037037037037,0)" xlink:href="#K"/><use transform="matrix(0.06172839506172839,0,0,0.06172839506172839,71.48148148148148,0)" xlink:href="#w"/><use transform="matrix(0.06172839506172839,0,0,0.06172839506172839,76.35802469135803,0)" xlink:href="#B"/><use transform="matrix(0.06172839506172839,0,0,0.06172839506172839,88.70370370370371,0)" xlink:href="#x"/><use transform="matrix(0.06172839506172839,0,0,0.06172839506172839,101.0493827160494,0)" xlink:href="#K"/></g><g id="f"><use transform="matrix(0.06172839506172839,0,0,0.06172839506172839,0,0)" xlink:href="#D"/><use transform="matrix(0.06172839506172839,0,0,0.06172839506172839,11.11111111111111,0)" xlink:href="#E"/><use transform="matrix(0.06172839506172839,0,0,0.06172839506172839,23.45679012345679,0)" xlink:href="#F"/><use transform="matrix(0.06172839506172839,0,0,0.06172839506172839,34.5679012345679,0)" xlink:href="#A"/><use transform="matrix(0.06172839506172839,0,0,0.06172839506172839,40.74074074074074,0)" xlink:href="#B"/><use transform="matrix(0.06172839506172839,0,0,0.06172839506172839,53.08641975308642,0)" xlink:href="#G"/></g><path fill="#3a414a" d="M141-36C126-15 110 5 73 4 37 3 15-17 15-53c-1-64 63-63 125-63 3-35-9-54-41-54-24 1-41 7-42 31l-33-3c5-37 33-52 76-52 45 0 72 20 72 64v82c-1 20 7 32 28 27v20c-31 9-61-2-59-35zM48-53c0 20 12 33 32 33 41-3 63-29 60-74-43 2-92-5-92 41" id="L"/><path fill="#3a414a" d="M115-194c53 0 69 39 70 98 0 66-23 100-70 100C84 3 66-7 56-30L54 0H23l1-261h32v101c10-23 28-34 59-34zm-8 174c40 0 45-34 45-75 0-40-5-75-45-74-42 0-51 32-51 76 0 43 10 73 51 73" id="M"/><g id="g"><use transform="matrix(0.06172839506172839,0,0,0.06172839506172839,0,0)" xlink:href="#L"/><use transform="matrix(0.06172839506172839,0,0,0.06172839506172839,12.345679012345679,0)" xlink:href="#M"/><use transform="matrix(0.06172839506172839,0,0,0.06172839506172839,24.691358024691358,0)" xlink:href="#K"/></g><g id="h"><use transform="matrix(0.06172839506172839,0,0,0.06172839506172839,0,0)" xlink:href="#L"/><use transform="matrix(0.06172839506172839,0,0,0.06172839506172839,12.345679012345679,0)" xlink:href="#I"/><use transform="matrix(0.06172839506172839,0,0,0.06172839506172839,24.691358024691358,0)" xlink:href="#I"/></g><path fill="#3a414a" d="M177-190C167-65 218 103 67 71c-23-6-38-20-44-43l32-5c15 47 100 32 89-28v-30C133-14 115 1 83 1 29 1 15-40 15-95c0-56 16-97 71-98 29-1 48 16 59 35 1-10 0-23 2-32h30zM94-22c36 0 50-32 50-73 0-42-14-75-50-75-39 0-46 34-46 75s6 73 46 73" id="N"/><g id="i"><use transform="matrix(0.06172839506172839,0,0,0.06172839506172839,0,0)" xlink:href="#x"/><use transform="matrix(0.06172839506172839,0,0,0.06172839506172839,12.345679012345679,0)" xlink:href="#E"/><use transform="matrix(0.06172839506172839,0,0,0.06172839506172839,24.691358024691358,0)" xlink:href="#N"/><use transform="matrix(0.06172839506172839,0,0,0.06172839506172839,37.03703703703704,0)" xlink:href="#L"/><use transform="matrix(0.06172839506172839,0,0,0.06172839506172839,49.382716049382715,0)" xlink:href="#A"/><use transform="matrix(0.06172839506172839,0,0,0.06172839506172839,55.55555555555556,0)" xlink:href="#E"/></g><g id="j"><use transform="matrix(0.06172839506172839,0,0,0.06172839506172839,0,0)" xlink:href="#D"/><use transform="matrix(0.06172839506172839,0,0,0.06172839506172839,11.11111111111111,0)" xlink:href="#E"/><use transform="matrix(0.06172839506172839,0,0,0.06172839506172839,23.45679012345679,0)" xlink:href="#F"/><use transform="matrix(0.06172839506172839,0,0,0.06172839506172839,34.5679012345679,0)" xlink:href="#A"/><use transform="matrix(0.06172839506172839,0,0,0.06172839506172839,40.74074074074074,0)" xlink:href="#B"/><use transform="matrix(0.06172839506172839,0,0,0.06172839506172839,53.08641975308642,0)" xlink:href="#G"/></g><path fill="#3a414a" d="M141 0L90-78 38 0H4l68-98-65-92h35l48 74 47-74h35l-64 92 68 98h-35" id="O"/><g id="k"><use transform="matrix(0.06172839506172839,0,0,0.06172839506172839,0,0)" xlink:href="#J"/><use transform="matrix(0.06172839506172839,0,0,0.06172839506172839,18.456790123456788,0)" xlink:href="#L"/><use transform="matrix(0.06172839506172839,0,0,0.06172839506172839,30.80246913580247,0)" xlink:href="#O"/><use transform="matrix(0.06172839506172839,0,0,0.06172839506172839,41.91358024691358,0)" xlink:href="#w"/><use transform="matrix(0.06172839506172839,0,0,0.06172839506172839,46.79012345679013,0)" xlink:href="#J"/><use transform="matrix(0.06172839506172839,0,0,0.06172839506172839,65.24691358024691,0)" xlink:href="#z"/><use transform="matrix(0.06172839506172839,0,0,0.06172839506172839,77.5925925925926,0)" xlink:href="#J"/></g><g id="l"><use transform="matrix(0.06172839506172839,0,0,0.06172839506172839,0,0)" xlink:href="#F"/><use transform="matrix(0.06172839506172839,0,0,0.06172839506172839,11.11111111111111,0)" xlink:href="#B"/><use transform="matrix(0.06172839506172839,0,0,0.06172839506172839,23.45679012345679,0)" xlink:href="#J"/><use transform="matrix(0.06172839506172839,0,0,0.06172839506172839,41.91358024691358,0)" xlink:href="#y"/><use transform="matrix(0.06172839506172839,0,0,0.06172839506172839,54.25925925925926,0)" xlink:href="#B"/><use transform="matrix(0.06172839506172839,0,0,0.06172839506172839,66.60493827160494,0)" xlink:href="#x"/><use transform="matrix(0.06172839506172839,0,0,0.06172839506172839,78.95061728395062,0)" xlink:href="#E"/><use transform="matrix(0.06172839506172839,0,0,0.06172839506172839,91.2962962962963,0)" xlink:href="#x"/><use transform="matrix(0.06172839506172839,0,0,0.06172839506172839,103.64197530864199,0)" xlink:href="#A"/></g><g id="m"><use transform="matrix(0.06172839506172839,0,0,0.06172839506172839,0,0)" xlink:href="#F"/><use transform="matrix(0.06172839506172839,0,0,0.06172839506172839,11.11111111111111,0)" xlink:href="#B"/><use transform="matrix(0.06172839506172839,0,0,0.06172839506172839,23.45679012345679,0)" xlink:href="#J"/><use transform="matrix(0.06172839506172839,0,0,0.06172839506172839,41.91358024691358,0)" xlink:href="#y"/><use transform="matrix(0.06172839506172839,0,0,0.06172839506172839,54.25925925925926,0)" xlink:href="#B"/><use transform="matrix(0.06172839506172839,0,0,0.06172839506172839,66.60493827160494,0)" xlink:href="#x"/><use transform="matrix(0.06172839506172839,0,0,0.06172839506172839,78.95061728395062,0)" xlink:href="#E"/><use transform="matrix(0.06172839506172839,0,0,0.06172839506172839,91.2962962962963,0)" xlink:href="#x"/><use transform="matrix(0.06172839506172839,0,0,0.06172839506172839,103.64197530864199,0)" xlink:href="#A"/></g><path fill="#3a414a" d="M206 0h-36l-40-164L89 0H53L-1-190h32L70-26l43-164h34l41 164 42-164h31" id="P"/><g id="n"><use transform="matrix(0.06172839506172839,0,0,0.06172839506172839,0,0)" xlink:href="#P"/><use transform="matrix(0.06172839506172839,0,0,0.06172839506172839,15.987654320987653,0)" xlink:href="#w"/><use transform="matrix(0.06172839506172839,0,0,0.06172839506172839,20.864197530864196,0)" xlink:href="#K"/><use transform="matrix(0.06172839506172839,0,0,0.06172839506172839,31.975308641975307,0)" xlink:href="#E"/></g><g id="o"><use transform="matrix(0.06172839506172839,0,0,0.06172839506172839,0,0)" xlink:href="#J"/><use transform="matrix(0.06172839506172839,0,0,0.06172839506172839,18.456790123456788,0)" xlink:href="#L"/><use transform="matrix(0.06172839506172839,0,0,0.06172839506172839,30.80246913580247,0)" xlink:href="#O"/><use transform="matrix(0.06172839506172839,0,0,0.06172839506172839,41.91358024691358,0)" xlink:href="#w"/><use transform="matrix(0.06172839506172839,0,0,0.06172839506172839,46.79012345679013,0)" xlink:href="#J"/><use transform="matrix(0.06172839506172839,0,0,0.06172839506172839,65.24691358024691,0)" xlink:href="#z"/><use transform="matrix(0.06172839506172839,0,0,0.06172839506172839,77.5925925925926,0)" xlink:href="#J"/></g><path fill="#3a414a" d="M101-251c68 0 85 55 85 127S166 4 100 4C33 4 14-52 14-124c0-73 17-127 87-127zm-1 229c47 0 54-49 54-102s-4-102-53-102c-51 0-55 48-55 102 0 53 5 102 54 102" id="Q"/><path fill="#3a414a" d="M68-38c1 34 0 65-14 84H32c9-13 17-26 17-46H33v-38h35" id="R"/><g id="p"><use transform="matrix(0.06172839506172839,0,0,0.06172839506172839,0,0)" xlink:href="#C"/><use transform="matrix(0.06172839506172839,0,0,0.06172839506172839,7.345679012345679,0)" xlink:href="#Q"/><use transform="matrix(0.06172839506172839,0,0,0.06172839506172839,19.691358024691358,0)" xlink:href="#R"/><use transform="matrix(0.06172839506172839,0,0,0.06172839506172839,25.864197530864196,0)" xlink:href="#Q"/><use transform="matrix(0.06172839506172839,0,0,0.06172839506172839,38.20987654320987,0)" xlink:href="#R"/><use transform="matrix(0.06172839506172839,0,0,0.06172839506172839,44.382716049382715,0)" xlink:href="#Q"/><use transform="matrix(0.06172839506172839,0,0,0.06172839506172839,56.72839506172839,0)" xlink:href="#H"/></g><g id="q"><use transform="matrix(0.06172839506172839,0,0,0.06172839506172839,0,0)" xlink:href="#x"/><use transform="matrix(0.06172839506172839,0,0,0.06172839506172839,12.345679012345679,0)" xlink:href="#B"/><use transform="matrix(0.06172839506172839,0,0,0.06172839506172839,24.691358024691358,0)" xlink:href="#G"/><use transform="matrix(0.06172839506172839,0,0,0.06172839506172839,32.03703703703704,0)" xlink:href="#J"/></g><path fill="#3a414a" d="M101-234c-31-9-42 10-38 44h38v23H63V0H32v-167H5v-23h27c-7-52 17-82 69-68v24" id="S"/><path fill="#3a414a" d="M24 0v-261h32V0H24" id="T"/><g id="r"><use transform="matrix(0.06172839506172839,0,0,0.06172839506172839,0,0)" xlink:href="#S"/><use transform="matrix(0.06172839506172839,0,0,0.06172839506172839,6.172839506172839,0)" xlink:href="#T"/><use transform="matrix(0.06172839506172839,0,0,0.06172839506172839,11.049382716049383,0)" xlink:href="#B"/><use transform="matrix(0.06172839506172839,0,0,0.06172839506172839,23.395061728395063,0)" xlink:href="#L"/><use transform="matrix(0.06172839506172839,0,0,0.06172839506172839,35.74074074074074,0)" xlink:href="#A"/></g><use transform="matrix(0.06172839506172839,0,0,0.06172839506172839,0,0)" xlink:href="#Q" id="s"/><g id="t"><use transform="matrix(0.06172839506172839,0,0,0.06172839506172839,0,0)" xlink:href="#B"/><use transform="matrix(0.06172839506172839,0,0,0.06172839506172839,12.345679012345679,0)" xlink:href="#z"/><use transform="matrix(0.06172839506172839,0,0,0.06172839506172839,24.691358024691358,0)" xlink:href="#A"/><use transform="matrix(0.06172839506172839,0,0,0.06172839506172839,30.864197530864196,0)" xlink:href="#y"/><use transform="matrix(0.06172839506172839,0,0,0.06172839506172839,43.20987654320987,0)" xlink:href="#z"/><use transform="matrix(0.06172839506172839,0,0,0.06172839506172839,55.55555555555555,0)" xlink:href="#A"/></g><g id="u"><use transform="matrix(0.06172839506172839,0,0,0.06172839506172839,0,0)" xlink:href="#I"/><use transform="matrix(0.06172839506172839,0,0,0.06172839506172839,12.345679012345679,0)" xlink:href="#w"/><use transform="matrix(0.06172839506172839,0,0,0.06172839506172839,17.22222222222222,0)" xlink:href="#K"/><use transform="matrix(0.06172839506172839,0,0,0.06172839506172839,28.333333333333332,0)" xlink:href="#A"/><use transform="matrix(0.06172839506172839,0,0,0.06172839506172839,34.50617283950617,0)" xlink:href="#L"/><use transform="matrix(0.06172839506172839,0,0,0.06172839506172839,46.85185185185185,0)" xlink:href="#x"/><use transform="matrix(0.06172839506172839,0,0,0.06172839506172839,59.197530864197525,0)" xlink:href="#F"/><use transform="matrix(0.06172839506172839,0,0,0.06172839506172839,70.30864197530863,0)" xlink:href="#E"/></g><g id="v"><use transform="matrix(0.06172839506172839,0,0,0.06172839506172839,0,0)" xlink:href="#C"/><use transform="matrix(0.06172839506172839,0,0,0.06172839506172839,7.345679012345679,0)" xlink:href="#S"/><use transform="matrix(0.06172839506172839,0,0,0.06172839506172839,13.518518518518519,0)" xlink:href="#T"/><use transform="matrix(0.06172839506172839,0,0,0.06172839506172839,18.395061728395063,0)" xlink:href="#B"/><use transform="matrix(0.06172839506172839,0,0,0.06172839506172839,30.74074074074074,0)" xlink:href="#L"/><use transform="matrix(0.06172839506172839,0,0,0.06172839506172839,43.08641975308642,0)" xlink:href="#A"/><use transform="matrix(0.06172839506172839,0,0,0.06172839506172839,49.25925925925926,0)" xlink:href="#H"/></g></defs></g></svg>