<svg xmlns="http://www.w3.org/2000/svg" xmlns:xlink="http://www.w3.org/1999/xlink" xmlns:lucid="lucid" width="1121" height="760.5"><g transform="translate(-199.5 -279.5)" lucid:page-tab-id="uDe-dIt-NWfS"><path d="M220 308a8 8 0 0 1 8-8h144a8 8 0 0 1 8 8v144a8 8 0 0 1-8 8H228a8 8 0 0 1-8-8z" stroke="#333" fill="#ffd6f5"/><use xlink:href="#a" transform="matrix(1,0,0,1,225,305.00000000000006) translate(26.349999999999994 80.025)"/><use xlink:href="#b" transform="matrix(1,0,0,1,225,305.00000000000006) translate(70.25 80.025)"/><use xlink:href="#c" transform="matrix(1,0,0,1,225,305.00000000000006) translate(91.7 80.025)"/><path d="M560 308a8 8 0 0 1 8-8h144a8 8 0 0 1 8 8v144a8 8 0 0 1-8 8H568a8 8 0 0 1-8-8z" stroke="#333" fill="#c3f7c8"/><use xlink:href="#d" transform="matrix(1,0,0,1,565,305) translate(19.599999999999994 65.9625)"/><use xlink:href="#e" transform="matrix(1,0,0,1,565,305) translate(56.55 65.9625)"/><use xlink:href="#f" transform="matrix(1,0,0,1,565,305) translate(45.025 87.5625)"/><use xlink:href="#g" transform="matrix(1,0,0,1,565,305) translate(84.975 87.5625)"/><path d="M560 528a8 8 0 0 1 8-8h144a8 8 0 0 1 8 8v144a8 8 0 0 1-8 8H568a8 8 0 0 1-8-8z" stroke="#333" fill="#c3f7c8"/><use xlink:href="#d" transform="matrix(1,0,0,1,565,525) translate(19.599999999999994 65.9625)"/><use xlink:href="#e" transform="matrix(1,0,0,1,565,525) translate(56.55 65.9625)"/><use xlink:href="#f" transform="matrix(1,0,0,1,565,525) translate(45.025 87.5625)"/><use xlink:href="#h" transform="matrix(1,0,0,1,565,525) translate(84.975 87.5625)"/><path d="M560 748a8 8 0 0 1 8-8h144a8 8 0 0 1 8 8v44a8 8 0 0 1-8 8H568a8 8 0 0 1-8-8z" stroke="#333" fill="#c3f7c8"/><use xlink:href="#i" transform="matrix(1,0,0,1,565,745) translate(67.5 30.025)"/><path d="M381 346.7h162.12" stroke="#635dff" fill="none"/><path d="M381 347.18h-.5v-.95h.5z" stroke="#635dff" stroke-width=".05" fill="#635dff"/><path d="M557.88 346.7l-14.26 4.64v-9.27z" stroke="#635dff" fill="#635dff"/><use xlink:href="#j" transform="matrix(1,0,0,1,403.6499768813461,321.1091384476419) translate(0.0049999999999954525 14.4)"/><use xlink:href="#k" transform="matrix(1,0,0,1,403.6499768813461,321.1091384476419) translate(43.905 14.4)"/><use xlink:href="#l" transform="matrix(1,0,0,1,403.6499768813461,321.1091384476419) translate(97.805 14.4)"/><path d="M381 416.13h162.12" stroke="#e81313" fill="none"/><path d="M381 416.6h-.5v-.95h.5z" stroke="#e81313" stroke-width=".05" fill="#e81313"/><path d="M557.88 416.13l-14.26 4.63v-9.26z" stroke="#e81313" fill="#e81313"/><use xlink:href="#m" transform="matrix(1,0,0,1,422.75002509017656,390.5298542517996) translate(0.005000000000002558 14.4)"/><use xlink:href="#n" transform="matrix(1,0,0,1,422.75002509017656,390.5298542517996) translate(36.955000000000005 14.4)"/><use xlink:href="#o" transform="matrix(1,0,0,1,422.75002509017656,390.5298542517996) translate(61.90500000000001 14.4)"/><use xlink:href="#p" transform="matrix(1,0,0,1,422.75002509017656,390.5298542517996) translate(79.555 14.4)"/><path d="M611.13 461v42.12" stroke="#635dff" fill="none"/><path d="M611.6 461h-.95v-.5h.95z" stroke="#635dff" stroke-width=".05" fill="#635dff"/><path d="M611.13 517.88l-4.64-14.26h9.26z" stroke="#635dff" fill="#635dff"/><path d="M672 461v42.12" stroke="#e81313" fill="none"/><path d="M672.48 461h-.96v-.5h.96z" stroke="#e81313" stroke-width=".05" fill="#e81313"/><path d="M672 517.88l-4.63-14.26h9.26z" stroke="#e81313" fill="#e81313"/><path d="M602.92 681v4.8m0 4.8v9.6m0 4.8v4.87l-.02.02-.02.02-.02.02-.02.02-.03.02-.04.02h-.09l-.03.02-.03.02v.02l-.03.02-.02.02v.06l-.02.03v4.3m0 4.3v4.32" stroke="#635dff" fill="none"/><path d="M603.4 681h-.96v-.5h.95z" stroke="#635dff" stroke-width=".05" fill="#635dff"/><path d="M602.53 737.88l-4.63-14.26h9.27z" stroke="#635dff" fill="#635dff"/><path d="M675.03 681v4.8m0 4.8v9.6m0 4.82v4.85l.02.03v.02l.03.03h.02l.03.03h.02l.03.02H675.27l.03.02h.02l.02.03.02.03v.02l.02.02V714.5m0 4.32v4.32" stroke="#e81313" fill="none"/><path d="M675.5 681h-.95v-.5h.95z" stroke="#e81313" stroke-width=".05" fill="#e81313"/><path d="M675.4 737.88l-4.64-14.26h9.27z" stroke="#e81313" fill="#e81313"/><path d="M560 867.5a8 8 0 0 1 8-8h144a8 8 0 0 1 8 8v144a8 8 0 0 1-8 8H568a8 8 0 0 1-8-8z" stroke="#333" fill="#c3f7c8"/><use xlink:href="#d" transform="matrix(1,0,0,1,565,864.500074324786) translate(19.599999999999994 65.9625)"/><use xlink:href="#e" transform="matrix(1,0,0,1,565,864.500074324786) translate(56.55 65.9625)"/><use xlink:href="#f" transform="matrix(1,0,0,1,565,864.500074324786) translate(45.025 87.5625)"/><use xlink:href="#q" transform="matrix(1,0,0,1,565,864.500074324786) translate(84.975 87.5625)"/><path d="M602.92 800.5v4.68m0 4.68v9.36m0 4.68v9.36m0 4.68v4.68M602.92 800.5v-.5" stroke="#635dff" fill="none"/><path d="M602.92 857.38l-4.64-14.26h9.27z" stroke="#635dff" fill="#635dff"/><path d="M675.03 800.5v4.68m0 4.68v9.36m0 4.68v9.36m0 4.68v4.68M675.03 800.5v-.5" stroke="#e81313" fill="none"/><path d="M675.03 857.38l-4.64-14.26h9.26z" stroke="#e81313" fill="#e81313"/><path d="M860 867.5a8 8 0 0 1 8-8h144a8 8 0 0 1 8 8v144a8 8 0 0 1-8 8H868a8 8 0 0 1-8-8z" stroke="#333" fill="#ffdda6"/><use xlink:href="#r" transform="matrix(1,0,0,1,865,864.500074324786) translate(21.624999999999993 80.025)"/><use xlink:href="#s" transform="matrix(1,0,0,1,865,864.500074324786) translate(69.475 80.025)"/><path d="M721 900.24h122.12" stroke="#ba23f6" fill="none"/><path d="M721 900.72h-.5v-.95h.5z" stroke="#ba23f6" stroke-width=".05" fill="#ba23f6"/><path d="M857.88 900.24l-14.26 4.64v-9.27z" stroke="#ba23f6" fill="#ba23f6"/><use xlink:href="#t" transform="matrix(1,0,0,1,774.0499727381755,874.6430469745301) translate(0.005000000000000782 14.4)"/><path d="M721 976h122.12" stroke="#008573" fill="none"/><path d="M721 976.48h-.5v-.96h.5z" stroke="#008573" stroke-width=".05" fill="#008573"/><path d="M857.88 976l-14.26 4.63v-9.26z" stroke="#008573" fill="#008573"/><use xlink:href="#u" transform="matrix(1,0,0,1,755.0500253471703,950.3999996527948) translate(0.005000000000002558 14.4)"/><path d="M860 648a8 8 0 0 1 8-8h144a8 8 0 0 1 8 8v144a8 8 0 0 1-8 8H868a8 8 0 0 1-8-8z" stroke="#333" fill="#ced4db"/><use xlink:href="#v" transform="matrix(1,0,0,1,865,645) translate(16.599999999999994 80.025)"/><use xlink:href="#w" transform="matrix(1,0,0,1,865,645) translate(68.55 80.025)"/><path d="M1140 648a8 8 0 0 1 8-8h144a8 8 0 0 1 8 8v144a8 8 0 0 1-8 8h-144a8 8 0 0 1-8-8z" stroke="#333" fill="#cfe4ff"/><g><use xlink:href="#x" transform="matrix(1,0,0,1,1145,645) translate(30.099999999999994 80.025)"/><use xlink:href="#y" transform="matrix(1,0,0,1,1145,645) translate(72.1 80.025)"/></g><path d="M940 858.5v-41.62" stroke="#fff" fill="none"/><path d="M940.48 859h-.96v-.5h.96z" stroke="#fff" stroke-width=".05" fill="#fff"/><path d="M940 802.12l4.63 14.26h-9.26z" stroke="#fff" fill="#fff"/><g><use xlink:href="#z" transform="matrix(1,0,0,1,948,824.735400637924) translate(0.005000000000002558 14.4)"/><use xlink:href="#A" transform="matrix(1,0,0,1,948,824.735400637924) translate(25.005000000000003 14.4)"/><use xlink:href="#B" transform="matrix(1,0,0,1,948,824.735400637924) translate(50.955000000000005 14.4)"/></g><path d="M1021 756.33h102.12" stroke="#fff" fill="none"/><path d="M1021 756.8h-.5v-.94h.5z" stroke="#fff" stroke-width=".05" fill="#fff"/><path d="M1137.88 756.33l-14.26 4.64v-9.27z" stroke="#fff" fill="#fff"/><g><use xlink:href="#z" transform="matrix(1,0,0,1,1025.7876851576184,730.7333348379802) translate(0.005000000000002558 14.4)"/><use xlink:href="#A" transform="matrix(1,0,0,1,1025.7876851576184,730.7333348379802) translate(25.005000000000003 14.4)"/><use xlink:href="#B" transform="matrix(1,0,0,1,1025.7876851576184,730.7333348379802) translate(50.955000000000005 14.4)"/></g><path d="M1139 697h-102.12" stroke="#fff" fill="none"/><path d="M1139.5 697.48h-.5v-.96h.5z" stroke="#fff" stroke-width=".05" fill="#fff"/><path d="M1022.12 697l14.26-4.63v9.26z" stroke="#fff" fill="#fff"/><path d="M1139 668.33h-102.12" stroke="#fff" fill="none"/><path d="M1139.5 668.8h-.5v-.94h.5z" stroke="#fff" stroke-width=".05" fill="#fff"/><path d="M1022.12 668.33l14.26-4.63v9.27z" stroke="#fff" fill="#fff"/><g><use xlink:href="#C" transform="matrix(1,0,0,1,1046.1889882903045,642.7333332175831) translate(0.005000000000002558 14.4)"/><use xlink:href="#D" transform="matrix(1,0,0,1,1046.1889882903045,642.7333332175831) translate(41.955000000000005 14.4)"/><use xlink:href="#E" transform="matrix(1,0,0,1,1046.1889882903045,642.7333332175831) translate(58.955000000000005 14.4)"/><use xlink:href="#F" transform="matrix(1,0,0,1,1046.1889882903045,642.7333332175831) translate(68.95500000000001 14.4)"/></g><defs><path fill="#333" d="M30-248c87 1 191-15 191 75 0 78-77 80-158 76V0H30v-248zm33 125c57 0 124 11 124-50 0-59-68-47-124-48v98" id="G"/><path fill="#333" d="M24-231v-30h32v30H24zM24 0v-190h32V0H24" id="H"/><path fill="#333" d="M141 0L90-78 38 0H4l68-98-65-92h35l48 74 47-74h35l-64 92 68 98h-35" id="I"/><path fill="#333" d="M100-194c63 0 86 42 84 106H49c0 40 14 67 53 68 26 1 43-12 49-29l28 8c-11 28-37 45-77 45C44 4 14-33 15-96c1-61 26-98 85-98zm52 81c6-60-76-77-97-28-3 7-6 17-6 28h103" id="J"/><path fill="#333" d="M24 0v-261h32V0H24" id="K"/><g id="a"><use transform="matrix(0.05,0,0,0.05,0,0)" xlink:href="#G"/><use transform="matrix(0.05,0,0,0.05,12,0)" xlink:href="#H"/><use transform="matrix(0.05,0,0,0.05,15.949999999999998,0)" xlink:href="#I"/><use transform="matrix(0.05,0,0,0.05,24.95,0)" xlink:href="#J"/><use transform="matrix(0.05,0,0,0.05,34.95,0)" xlink:href="#K"/></g><path fill="#333" d="M16-82v-28h88v28H16" id="L"/><path fill="#333" d="M18-27v-27l151-64-151-65v-27l175 74v36" id="M"/><g id="b"><use transform="matrix(0.05,0,0,0.05,0,0)" xlink:href="#L"/><use transform="matrix(0.05,0,0,0.05,5.95,0)" xlink:href="#M"/></g><path fill="#333" d="M233-177c-1 41-23 64-60 70L243 0h-38l-65-103H63V0H30v-248c88 3 205-21 203 71zM63-129c60-2 137 13 137-47 0-61-80-42-137-45v92" id="N"/><path fill="#333" d="M141-36C126-15 110 5 73 4 37 3 15-17 15-53c-1-64 63-63 125-63 3-35-9-54-41-54-24 1-41 7-42 31l-33-3c5-37 33-52 76-52 45 0 72 20 72 64v82c-1 20 7 32 28 27v20c-31 9-61-2-59-35zM48-53c0 20 12 33 32 33 41-3 63-29 60-74-43 2-92-5-92 41" id="O"/><path fill="#333" d="M179-190L93 31C79 59 56 82 12 73V49c39 6 53-20 64-50L1-190h34L92-34l54-156h33" id="P"/><g id="c"><use transform="matrix(0.05,0,0,0.05,0,0)" xlink:href="#N"/><use transform="matrix(0.05,0,0,0.05,12.950000000000001,0)" xlink:href="#O"/><use transform="matrix(0.05,0,0,0.05,22.950000000000003,0)" xlink:href="#P"/></g><g id="d"><use transform="matrix(0.05,0,0,0.05,0,0)" xlink:href="#N"/><use transform="matrix(0.05,0,0,0.05,12.950000000000001,0)" xlink:href="#O"/><use transform="matrix(0.05,0,0,0.05,22.950000000000003,0)" xlink:href="#P"/></g><path fill="#333" d="M210-169c-67 3-38 105-44 169h-31v-121c0-29-5-50-35-48C34-165 62-65 56 0H25l-1-190h30c1 10-1 24 2 32 10-44 99-50 107 0 11-21 27-35 58-36 85-2 47 119 55 194h-31v-121c0-29-5-49-35-48" id="Q"/><path fill="#333" d="M114-163C36-179 61-72 57 0H25l-1-190h30c1 12-1 29 2 39 6-27 23-49 58-41v29" id="R"/><path fill="#333" d="M96-169c-40 0-48 33-48 73s9 75 48 75c24 0 41-14 43-38l32 2c-6 37-31 61-74 61-59 0-76-41-82-99-10-93 101-131 147-64 4 7 5 14 7 22l-32 3c-4-21-16-35-41-35" id="S"/><path fill="#333" d="M106-169C34-169 62-67 57 0H25v-261h32l-1 103c12-21 28-36 61-36 89 0 53 116 60 194h-32v-121c2-32-8-49-39-48" id="T"/><path fill="#333" d="M117-194c89-4 53 116 60 194h-32v-121c0-31-8-49-39-48C34-167 62-67 57 0H25l-1-190h30c1 10-1 24 2 32 11-22 29-35 61-36" id="U"/><path fill="#333" d="M177-190C167-65 218 103 67 71c-23-6-38-20-44-43l32-5c15 47 100 32 89-28v-30C133-14 115 1 83 1 29 1 15-40 15-95c0-56 16-97 71-98 29-1 48 16 59 35 1-10 0-23 2-32h30zM94-22c36 0 50-32 50-73 0-42-14-75-50-75-39 0-46 34-46 75s6 73 46 73" id="V"/><g id="e"><use transform="matrix(0.05,0,0,0.05,0,0)" xlink:href="#Q"/><use transform="matrix(0.05,0,0,0.05,14.950000000000001,0)" xlink:href="#O"/><use transform="matrix(0.05,0,0,0.05,24.950000000000003,0)" xlink:href="#R"/><use transform="matrix(0.05,0,0,0.05,30.900000000000002,0)" xlink:href="#S"/><use transform="matrix(0.05,0,0,0.05,39.900000000000006,0)" xlink:href="#T"/><use transform="matrix(0.05,0,0,0.05,49.900000000000006,0)" xlink:href="#H"/><use transform="matrix(0.05,0,0,0.05,53.85,0)" xlink:href="#U"/><use transform="matrix(0.05,0,0,0.05,63.85,0)" xlink:href="#V"/></g><path fill="#333" d="M100-194c62-1 85 37 85 99 1 63-27 99-86 99S16-35 15-95c0-66 28-99 85-99zM99-20c44 1 53-31 53-75 0-43-8-75-51-75s-53 32-53 75 10 74 51 75" id="W"/><g id="f"><use transform="matrix(0.05,0,0,0.05,0,0)" xlink:href="#S"/><use transform="matrix(0.05,0,0,0.05,9,0)" xlink:href="#W"/><use transform="matrix(0.05,0,0,0.05,19,0)" xlink:href="#R"/><use transform="matrix(0.05,0,0,0.05,24.95,0)" xlink:href="#J"/></g><path fill="#333" d="M158-156l-14 65h45v19h-49L124 0h-19l15-72H56L41 0H22l15-72H2v-19h39l14-65H11v-19h48l15-71h20l-16 71h64l16-71h19l-16 71h37v19h-40zm-83 0L61-91h63l14-65H75" id="X"/><path fill="#333" d="M27 0v-27h64v-190l-56 39v-29l58-41h29v221h61V0H27" id="Y"/><g id="g"><use transform="matrix(0.05,0,0,0.05,0,0)" xlink:href="#X"/><use transform="matrix(0.05,0,0,0.05,10,0)" xlink:href="#Y"/></g><path fill="#333" d="M101-251c82-7 93 87 43 132L82-64C71-53 59-42 53-27h129V0H18c2-99 128-94 128-182 0-28-16-43-45-43s-46 15-49 41l-32-3c6-41 34-60 81-64" id="Z"/><g id="h"><use transform="matrix(0.05,0,0,0.05,0,0)" xlink:href="#X"/><use transform="matrix(0.05,0,0,0.05,10,0)" xlink:href="#Z"/></g><path fill="#333" d="M33 0v-38h34V0H33" id="aa"/><g id="i"><use transform="matrix(0.05,0,0,0.05,0,0)" xlink:href="#aa"/><use transform="matrix(0.05,0,0,0.05,5,0)" xlink:href="#aa"/><use transform="matrix(0.05,0,0,0.05,10,0)" xlink:href="#aa"/></g><path fill="#635dff" d="M30-248c87 1 191-15 191 75 0 78-77 80-158 76V0H30v-248zm33 125c57 0 124 11 124-50 0-59-68-47-124-48v98" id="ab"/><path fill="#635dff" d="M24-231v-30h32v30H24zM24 0v-190h32V0H24" id="ac"/><path fill="#635dff" d="M141 0L90-78 38 0H4l68-98-65-92h35l48 74 47-74h35l-64 92 68 98h-35" id="ad"/><path fill="#635dff" d="M100-194c63 0 86 42 84 106H49c0 40 14 67 53 68 26 1 43-12 49-29l28 8c-11 28-37 45-77 45C44 4 14-33 15-96c1-61 26-98 85-98zm52 81c6-60-76-77-97-28-3 7-6 17-6 28h103" id="ae"/><path fill="#635dff" d="M24 0v-261h32V0H24" id="af"/><g id="j"><use transform="matrix(0.05,0,0,0.05,0,0)" xlink:href="#ab"/><use transform="matrix(0.05,0,0,0.05,12,0)" xlink:href="#ac"/><use transform="matrix(0.05,0,0,0.05,15.949999999999998,0)" xlink:href="#ad"/><use transform="matrix(0.05,0,0,0.05,24.95,0)" xlink:href="#ae"/><use transform="matrix(0.05,0,0,0.05,34.95,0)" xlink:href="#af"/></g><path fill="#635dff" d="M212-179c-10-28-35-45-73-45-59 0-87 40-87 99 0 60 29 101 89 101 43 0 62-24 78-52l27 14C228-24 195 4 139 4 59 4 22-46 18-125c-6-104 99-153 187-111 19 9 31 26 39 46" id="ag"/><path fill="#635dff" d="M100-194c62-1 85 37 85 99 1 63-27 99-86 99S16-35 15-95c0-66 28-99 85-99zM99-20c44 1 53-31 53-75 0-43-8-75-51-75s-53 32-53 75 10 74 51 75" id="ah"/><path fill="#635dff" d="M114-163C36-179 61-72 57 0H25l-1-190h30c1 12-1 29 2 39 6-27 23-49 58-41v29" id="ai"/><path fill="#635dff" d="M85-194c31 0 48 13 60 33l-1-100h32l1 261h-30c-2-10 0-23-3-31C134-8 116 4 85 4 32 4 16-35 15-94c0-66 23-100 70-100zm9 24c-40 0-46 34-46 75 0 40 6 74 45 74 42 0 51-32 51-76 0-42-9-74-50-73" id="aj"/><g id="k"><use transform="matrix(0.05,0,0,0.05,0,0)" xlink:href="#ag"/><use transform="matrix(0.05,0,0,0.05,12.950000000000001,0)" xlink:href="#ah"/><use transform="matrix(0.05,0,0,0.05,22.950000000000003,0)" xlink:href="#ah"/><use transform="matrix(0.05,0,0,0.05,32.95,0)" xlink:href="#ai"/><use transform="matrix(0.05,0,0,0.05,38.900000000000006,0)" xlink:href="#aj"/></g><path fill="#635dff" d="M87 75C49 33 22-17 22-94c0-76 28-126 65-167h31c-38 41-64 92-64 168S80 34 118 75H87" id="ak"/><path fill="#635dff" d="M68-38c1 34 0 65-14 84H32c9-13 17-26 17-46H33v-38h35" id="al"/><path fill="#635dff" d="M179-190L93 31C79 59 56 82 12 73V49c39 6 53-20 64-50L1-190h34L92-34l54-156h33" id="am"/><path fill="#635dff" d="M33-261c38 41 65 92 65 168S71 34 33 75H2C39 34 66-17 66-93S39-220 2-261h31" id="an"/><g id="l"><use transform="matrix(0.05,0,0,0.05,0,0)" xlink:href="#ak"/><use transform="matrix(0.05,0,0,0.05,5.95,0)" xlink:href="#ad"/><use transform="matrix(0.05,0,0,0.05,14.949999999999998,0)" xlink:href="#al"/><use transform="matrix(0.05,0,0,0.05,19.95,0)" xlink:href="#am"/><use transform="matrix(0.05,0,0,0.05,28.950000000000003,0)" xlink:href="#an"/></g><path fill="#e81313" d="M233-177c-1 41-23 64-60 70L243 0h-38l-65-103H63V0H30v-248c88 3 205-21 203 71zM63-129c60-2 137 13 137-47 0-61-80-42-137-45v92" id="ao"/><path fill="#e81313" d="M141-36C126-15 110 5 73 4 37 3 15-17 15-53c-1-64 63-63 125-63 3-35-9-54-41-54-24 1-41 7-42 31l-33-3c5-37 33-52 76-52 45 0 72 20 72 64v82c-1 20 7 32 28 27v20c-31 9-61-2-59-35zM48-53c0 20 12 33 32 33 41-3 63-29 60-74-43 2-92-5-92 41" id="ap"/><path fill="#e81313" d="M179-190L93 31C79 59 56 82 12 73V49c39 6 53-20 64-50L1-190h34L92-34l54-156h33" id="aq"/><g id="m"><use transform="matrix(0.05,0,0,0.05,0,0)" xlink:href="#ao"/><use transform="matrix(0.05,0,0,0.05,12.950000000000001,0)" xlink:href="#ap"/><use transform="matrix(0.05,0,0,0.05,22.950000000000003,0)" xlink:href="#aq"/></g><path fill="#e81313" d="M87 75C49 33 22-17 22-94c0-76 28-126 65-167h31c-38 41-64 92-64 168S80 34 118 75H87" id="ar"/><path fill="#e81313" d="M141 0L90-78 38 0H4l68-98-65-92h35l48 74 47-74h35l-64 92 68 98h-35" id="as"/><path fill="#e81313" d="M68-38c1 34 0 65-14 84H32c9-13 17-26 17-46H33v-38h35" id="at"/><g id="n"><use transform="matrix(0.05,0,0,0.05,0,0)" xlink:href="#ar"/><use transform="matrix(0.05,0,0,0.05,5.95,0)" xlink:href="#as"/><use transform="matrix(0.05,0,0,0.05,14.949999999999998,0)" xlink:href="#at"/></g><g id="o"><use transform="matrix(0.05,0,0,0.05,0,0)" xlink:href="#aq"/><use transform="matrix(0.05,0,0,0.05,7.65,0)" xlink:href="#at"/></g><path fill="#e81313" d="M9 0v-24l116-142H16v-24h144v24L44-24h123V0H9" id="au"/><path fill="#e81313" d="M33-261c38 41 65 92 65 168S71 34 33 75H2C39 34 66-17 66-93S39-220 2-261h31" id="av"/><g id="p"><use transform="matrix(0.05,0,0,0.05,0,0)" xlink:href="#au"/><use transform="matrix(0.05,0,0,0.05,9,0)" xlink:href="#av"/></g><g id="q"><use transform="matrix(0.05,0,0,0.05,0,0)" xlink:href="#X"/><use transform="matrix(0.05,0,0,0.05,10,0)" xlink:href="#U"/></g><path fill="#333" d="M212-179c-10-28-35-45-73-45-59 0-87 40-87 99 0 60 29 101 89 101 43 0 62-24 78-52l27 14C228-24 195 4 139 4 59 4 22-46 18-125c-6-104 99-153 187-111 19 9 31 26 39 46" id="aw"/><g id="r"><use transform="matrix(0.05,0,0,0.05,0,0)" xlink:href="#aw"/><use transform="matrix(0.05,0,0,0.05,12.950000000000001,0)" xlink:href="#W"/><use transform="matrix(0.05,0,0,0.05,22.950000000000003,0)" xlink:href="#K"/><use transform="matrix(0.05,0,0,0.05,26.900000000000002,0)" xlink:href="#W"/><use transform="matrix(0.05,0,0,0.05,36.900000000000006,0)" xlink:href="#R"/></g><path fill="#333" d="M240 0l2-218c-23 76-54 145-80 218h-23L58-218 59 0H30v-248h44l77 211c21-75 51-140 76-211h43V0h-30" id="ax"/><path fill="#333" d="M85-194c31 0 48 13 60 33l-1-100h32l1 261h-30c-2-10 0-23-3-31C134-8 116 4 85 4 32 4 16-35 15-94c0-66 23-100 70-100zm9 24c-40 0-46 34-46 75 0 40 6 74 45 74 42 0 51-32 51-76 0-42-9-74-50-73" id="ay"/><path fill="#333" d="M84 4C-5 8 30-112 23-190h32v120c0 31 7 50 39 49 72-2 45-101 50-169h31l1 190h-30c-1-10 1-25-2-33-11 22-28 36-60 37" id="az"/><g id="s"><use transform="matrix(0.05,0,0,0.05,0,0)" xlink:href="#ax"/><use transform="matrix(0.05,0,0,0.05,14.950000000000001,0)" xlink:href="#W"/><use transform="matrix(0.05,0,0,0.05,24.950000000000003,0)" xlink:href="#ay"/><use transform="matrix(0.05,0,0,0.05,34.95,0)" xlink:href="#az"/><use transform="matrix(0.05,0,0,0.05,44.95,0)" xlink:href="#K"/><use transform="matrix(0.05,0,0,0.05,48.900000000000006,0)" xlink:href="#J"/></g><path fill="#ba23f6" d="M197 0v-115H63V0H30v-248h33v105h134v-105h34V0h-34" id="aA"/><path fill="#ba23f6" d="M24-231v-30h32v30H24zM24 0v-190h32V0H24" id="aB"/><path fill="#ba23f6" d="M59-47c-2 24 18 29 38 22v24C64 9 27 4 27-40v-127H5v-23h24l9-43h21v43h35v23H59v120" id="aC"/><path fill="#ba23f6" d="M103-251c84 0 111 97 45 133-19 10-37 24-39 52H78c0-63 77-55 77-114 0-30-21-42-52-43-32 0-53 17-56 46l-32-2c7-45 34-72 88-72zM77 0v-35h34V0H77" id="aD"/><g id="t"><use transform="matrix(0.05,0,0,0.05,0,0)" xlink:href="#aA"/><use transform="matrix(0.05,0,0,0.05,12.950000000000001,0)" xlink:href="#aB"/><use transform="matrix(0.05,0,0,0.05,16.900000000000002,0)" xlink:href="#aC"/><use transform="matrix(0.05,0,0,0.05,21.900000000000002,0)" xlink:href="#aD"/></g><path fill="#008573" d="M30-248c118-7 216 8 213 122C240-48 200 0 122 0H30v-248zM63-27c89 8 146-16 146-99s-60-101-146-95v194" id="aE"/><path fill="#008573" d="M24-231v-30h32v30H24zM24 0v-190h32V0H24" id="aF"/><path fill="#008573" d="M135-143c-3-34-86-38-87 0 15 53 115 12 119 90S17 21 10-45l28-5c4 36 97 45 98 0-10-56-113-15-118-90-4-57 82-63 122-42 12 7 21 19 24 35" id="aG"/><path fill="#008573" d="M59-47c-2 24 18 29 38 22v24C64 9 27 4 27-40v-127H5v-23h24l9-43h21v43h35v23H59v120" id="aH"/><path fill="#008573" d="M141-36C126-15 110 5 73 4 37 3 15-17 15-53c-1-64 63-63 125-63 3-35-9-54-41-54-24 1-41 7-42 31l-33-3c5-37 33-52 76-52 45 0 72 20 72 64v82c-1 20 7 32 28 27v20c-31 9-61-2-59-35zM48-53c0 20 12 33 32 33 41-3 63-29 60-74-43 2-92-5-92 41" id="aI"/><path fill="#008573" d="M117-194c89-4 53 116 60 194h-32v-121c0-31-8-49-39-48C34-167 62-67 57 0H25l-1-190h30c1 10-1 24 2 32 11-22 29-35 61-36" id="aJ"/><path fill="#008573" d="M96-169c-40 0-48 33-48 73s9 75 48 75c24 0 41-14 43-38l32 2c-6 37-31 61-74 61-59 0-76-41-82-99-10-93 101-131 147-64 4 7 5 14 7 22l-32 3c-4-21-16-35-41-35" id="aK"/><path fill="#008573" d="M100-194c63 0 86 42 84 106H49c0 40 14 67 53 68 26 1 43-12 49-29l28 8c-11 28-37 45-77 45C44 4 14-33 15-96c1-61 26-98 85-98zm52 81c6-60-76-77-97-28-3 7-6 17-6 28h103" id="aL"/><g id="u"><use transform="matrix(0.05,0,0,0.05,0,0)" xlink:href="#aE"/><use transform="matrix(0.05,0,0,0.05,12.950000000000001,0)" xlink:href="#aF"/><use transform="matrix(0.05,0,0,0.05,16.900000000000002,0)" xlink:href="#aG"/><use transform="matrix(0.05,0,0,0.05,25.900000000000002,0)" xlink:href="#aH"/><use transform="matrix(0.05,0,0,0.05,30.900000000000002,0)" xlink:href="#aI"/><use transform="matrix(0.05,0,0,0.05,40.900000000000006,0)" xlink:href="#aJ"/><use transform="matrix(0.05,0,0,0.05,50.900000000000006,0)" xlink:href="#aK"/><use transform="matrix(0.05,0,0,0.05,59.900000000000006,0)" xlink:href="#aL"/></g><path fill="#333" d="M101-251c68 0 85 55 85 127S166 4 100 4C33 4 14-52 14-124c0-73 17-127 87-127zm-1 229c47 0 54-49 54-102s-4-102-53-102c-51 0-55 48-55 102 0 53 5 102 54 102" id="aM"/><path fill="#333" d="M194 0L95-120 63-95V0H30v-248h33v124l119-124h40L117-140 236 0h-42" id="aN"/><g id="v"><use transform="matrix(0.05,0,0,0.05,0,0)" xlink:href="#ax"/><use transform="matrix(0.05,0,0,0.05,14.950000000000001,0)" xlink:href="#Y"/><use transform="matrix(0.05,0,0,0.05,24.950000000000003,0)" xlink:href="#aM"/><use transform="matrix(0.05,0,0,0.05,34.95,0)" xlink:href="#aN"/></g><g id="w"><use transform="matrix(0.05,0,0,0.05,0,0)" xlink:href="#ax"/><use transform="matrix(0.05,0,0,0.05,14.950000000000001,0)" xlink:href="#J"/><use transform="matrix(0.05,0,0,0.05,24.950000000000003,0)" xlink:href="#Q"/><use transform="matrix(0.05,0,0,0.05,39.900000000000006,0)" xlink:href="#W"/><use transform="matrix(0.05,0,0,0.05,49.900000000000006,0)" xlink:href="#R"/><use transform="matrix(0.05,0,0,0.05,55.85,0)" xlink:href="#P"/></g><path fill="#333" d="M137 0h-34L2-248h35l83 218 83-218h36" id="aO"/><path fill="#333" d="M143 4C61 4 22-44 18-125c-5-107 100-154 193-111 17 8 29 25 37 43l-32 9c-13-25-37-40-76-40-61 0-88 39-88 99 0 61 29 100 91 101 35 0 62-11 79-27v-45h-74v-28h105v86C228-13 192 4 143 4" id="aP"/><path fill="#333" d="M205 0l-28-72H64L36 0H1l101-248h38L239 0h-34zm-38-99l-47-123c-12 45-31 82-46 123h93" id="aQ"/><g id="x"><use transform="matrix(0.05,0,0,0.05,0,0)" xlink:href="#aO"/><use transform="matrix(0.05,0,0,0.05,12,0)" xlink:href="#aP"/><use transform="matrix(0.05,0,0,0.05,26,0)" xlink:href="#aQ"/></g><path fill="#333" d="M30-248c118-7 216 8 213 122C240-48 200 0 122 0H30v-248zM63-27c89 8 146-16 146-99s-60-101-146-95v194" id="aR"/><path fill="#333" d="M108 0H70L1-190h34L89-25l56-165h34" id="aS"/><g id="y"><use transform="matrix(0.05,0,0,0.05,0,0)" xlink:href="#aR"/><use transform="matrix(0.05,0,0,0.05,12.950000000000001,0)" xlink:href="#R"/><use transform="matrix(0.05,0,0,0.05,18.900000000000002,0)" xlink:href="#H"/><use transform="matrix(0.05,0,0,0.05,22.85,0)" xlink:href="#aS"/><use transform="matrix(0.05,0,0,0.05,31.85,0)" xlink:href="#J"/><use transform="matrix(0.05,0,0,0.05,41.85,0)" xlink:href="#R"/></g><path fill="#fff" d="M27 0v-27h64v-190l-56 39v-29l58-41h29v221h61V0H27" id="aT"/><path fill="#fff" d="M101-251c68 0 85 55 85 127S166 4 100 4C33 4 14-52 14-124c0-73 17-127 87-127zm-1 229c47 0 54-49 54-102s-4-102-53-102c-51 0-55 48-55 102 0 53 5 102 54 102" id="aU"/><g id="z"><use transform="matrix(0.05,0,0,0.05,0,0)" xlink:href="#aT"/><use transform="matrix(0.05,0,0,0.05,10,0)" xlink:href="#aU"/></g><path fill="#fff" d="M160-131c35 5 61 23 61 61C221 17 115-2 30 0v-248c76 3 177-17 177 60 0 33-19 50-47 57zm-97-11c50-1 110 9 110-42 0-47-63-36-110-37v79zm0 115c55-2 124 14 124-45 0-56-70-42-124-44v89" id="aV"/><path fill="#fff" d="M24-231v-30h32v30H24zM24 0v-190h32V0H24" id="aW"/><path fill="#fff" d="M59-47c-2 24 18 29 38 22v24C64 9 27 4 27-40v-127H5v-23h24l9-43h21v43h35v23H59v120" id="aX"/><g id="A"><use transform="matrix(0.05,0,0,0.05,0,0)" xlink:href="#aV"/><use transform="matrix(0.05,0,0,0.05,12,0)" xlink:href="#aW"/><use transform="matrix(0.05,0,0,0.05,15.949999999999998,0)" xlink:href="#aX"/></g><path fill="#fff" d="M212-179c-10-28-35-45-73-45-59 0-87 40-87 99 0 60 29 101 89 101 43 0 62-24 78-52l27 14C228-24 195 4 139 4 59 4 22-46 18-125c-6-104 99-153 187-111 19 9 31 26 39 46" id="aY"/><path fill="#fff" d="M100-194c62-1 85 37 85 99 1 63-27 99-86 99S16-35 15-95c0-66 28-99 85-99zM99-20c44 1 53-31 53-75 0-43-8-75-51-75s-53 32-53 75 10 74 51 75" id="aZ"/><path fill="#fff" d="M24 0v-261h32V0H24" id="ba"/><path fill="#fff" d="M114-163C36-179 61-72 57 0H25l-1-190h30c1 12-1 29 2 39 6-27 23-49 58-41v29" id="bb"/><g id="B"><use transform="matrix(0.05,0,0,0.05,0,0)" xlink:href="#aY"/><use transform="matrix(0.05,0,0,0.05,12.950000000000001,0)" xlink:href="#aZ"/><use transform="matrix(0.05,0,0,0.05,22.950000000000003,0)" xlink:href="#ba"/><use transform="matrix(0.05,0,0,0.05,26.900000000000002,0)" xlink:href="#aZ"/><use transform="matrix(0.05,0,0,0.05,36.900000000000006,0)" xlink:href="#bb"/></g><path fill="#fff" d="M190 0L58-211 59 0H30v-248h39L202-35l-2-213h31V0h-41" id="bc"/><path fill="#fff" d="M100-194c63 0 86 42 84 106H49c0 40 14 67 53 68 26 1 43-12 49-29l28 8c-11 28-37 45-77 45C44 4 14-33 15-96c1-61 26-98 85-98zm52 81c6-60-76-77-97-28-3 7-6 17-6 28h103" id="bd"/><path fill="#fff" d="M141 0L90-78 38 0H4l68-98-65-92h35l48 74 47-74h35l-64 92 68 98h-35" id="be"/><g id="C"><use transform="matrix(0.05,0,0,0.05,0,0)" xlink:href="#bc"/><use transform="matrix(0.05,0,0,0.05,12.950000000000001,0)" xlink:href="#bd"/><use transform="matrix(0.05,0,0,0.05,22.950000000000003,0)" xlink:href="#be"/><use transform="matrix(0.05,0,0,0.05,31.950000000000003,0)" xlink:href="#aX"/></g><path fill="#fff" d="M195 0l-74-108L45 0H8l94-129-87-119h37l69 98 67-98h37l-84 118L233 0h-38" id="bf"/><use transform="matrix(0.05,0,0,0.05,0,0)" xlink:href="#bf" id="D"/><path fill="#fff" d="M0 4l72-265h28L28 4H0" id="bg"/><use transform="matrix(0.05,0,0,0.05,0,0)" xlink:href="#bg" id="E"/><path fill="#fff" d="M137-103V0h-34v-103L8-248h37l75 118 75-118h37" id="bh"/><use transform="matrix(0.05,0,0,0.05,0,0)" xlink:href="#bh" id="F"/></defs></g></svg>