<svg xmlns="http://www.w3.org/2000/svg" xmlns:xlink="http://www.w3.org/1999/xlink" xmlns:lucid="lucid" width="1340.5" height="981.5"><g transform="translate(-119.5 -58.500049999999874)" lucid:page-tab-id="uDe-dIt-NWfS"><path d="M140 304.5a8 8 0 0 1 8-8h144a8 8 0 0 1 8 8v144a8 8 0 0 1-8 8H148a8 8 0 0 1-8-8z" stroke="#333" fill="#ffd6f5"/><use xlink:href="#a" transform="matrix(1,0,0,1,145,301.499999264739) translate(26.349999999999994 80.025)"/><use xlink:href="#b" transform="matrix(1,0,0,1,145,301.499999264739) translate(70.25 80.025)"/><use xlink:href="#c" transform="matrix(1,0,0,1,145,301.499999264739) translate(91.7 80.025)"/><path d="M560 308a8 8 0 0 1 8-8h144a8 8 0 0 1 8 8v144a8 8 0 0 1-8 8H568a8 8 0 0 1-8-8z" stroke="#333" fill="#c3f7c8"/><use xlink:href="#d" transform="matrix(1,0,0,1,565,305) translate(19.599999999999994 65.9625)"/><use xlink:href="#e" transform="matrix(1,0,0,1,565,305) translate(56.55 65.9625)"/><use xlink:href="#f" transform="matrix(1,0,0,1,565,305) translate(45.025 87.5625)"/><use xlink:href="#g" transform="matrix(1,0,0,1,565,305) translate(84.975 87.5625)"/><path d="M560 528a8 8 0 0 1 8-8h144a8 8 0 0 1 8 8v144a8 8 0 0 1-8 8H568a8 8 0 0 1-8-8z" stroke="#333" fill="#c3f7c8"/><use xlink:href="#d" transform="matrix(1,0,0,1,565,525) translate(19.599999999999994 65.9625)"/><use xlink:href="#e" transform="matrix(1,0,0,1,565,525) translate(56.55 65.9625)"/><use xlink:href="#f" transform="matrix(1,0,0,1,565,525) translate(45.025 87.5625)"/><use xlink:href="#h" transform="matrix(1,0,0,1,565,525) translate(84.975 87.5625)"/><path d="M560 748a8 8 0 0 1 8-8h144a8 8 0 0 1 8 8v44a8 8 0 0 1-8 8H568a8 8 0 0 1-8-8z" stroke="#333" fill="#c3f7c8"/><use xlink:href="#i" transform="matrix(1,0,0,1,565,745) translate(67.5 30.025)"/><path d="M301 343.2h157a12 12 0 0 0 12-12V155.5a12 12 0 0 1 12-12h61.12" stroke="#635dff" fill="none"/><path d="M301 343.68h-.5v-.95h.5z" stroke="#635dff" stroke-width=".05" fill="#635dff"/><path d="M557.88 143.5l-14.26 4.63v-9.26z" stroke="#635dff" fill="#635dff"/><use xlink:href="#j" transform="matrix(1,0,0,1,305.2314140776499,317.60913771238086) translate(0.0049999999999954525 14.4)"/><use xlink:href="#k" transform="matrix(1,0,0,1,305.2314140776499,317.60913771238086) translate(43.905 14.4)"/><use xlink:href="#l" transform="matrix(1,0,0,1,305.2314140776499,317.60913771238086) translate(97.805 14.4)"/><path d="M301 412.63h187a12 12 0 0 0 12-12V189.5a12 12 0 0 1 12-12h31.12" stroke="#e81313" fill="none"/><path d="M301 413.1h-.5v-.95h.5z" stroke="#e81313" stroke-width=".05" fill="#e81313"/><path d="M557.88 177.5l-14.26 4.63v-9.26z" stroke="#e81313" fill="#e81313"/><use xlink:href="#m" transform="matrix(1,0,0,1,316.1322715008938,387.02985351653854) translate(0.005000000000002558 14.4)"/><use xlink:href="#n" transform="matrix(1,0,0,1,316.1322715008938,387.02985351653854) translate(36.955000000000005 14.4)"/><use xlink:href="#o" transform="matrix(1,0,0,1,316.1322715008938,387.02985351653854) translate(61.90500000000001 14.4)"/><use xlink:href="#p" transform="matrix(1,0,0,1,316.1322715008938,387.02985351653854) translate(79.555 14.4)"/><path d="M611.13 461v42.12" stroke="#635dff" fill="none"/><path d="M611.6 461h-.95v-.5h.95z" stroke="#635dff" stroke-width=".05" fill="#635dff"/><path d="M611.13 517.88l-4.64-14.26h9.26z" stroke="#635dff" fill="#635dff"/><path d="M672 461v42.12" stroke="#e81313" fill="none"/><path d="M672.48 461h-.96v-.5h.96z" stroke="#e81313" stroke-width=".05" fill="#e81313"/><path d="M672 517.88l-4.63-14.26h9.26z" stroke="#e81313" fill="#e81313"/><path d="M602.92 681v4.8m0 4.8v9.6m0 4.8v4.87l-.02.02-.02.02-.02.02-.02.02-.03.02-.04.02h-.09l-.03.02-.03.02v.02l-.03.02-.02.02v.06l-.02.03v4.3m0 4.3v4.32" stroke="#635dff" fill="none"/><path d="M603.4 681h-.96v-.5h.95z" stroke="#635dff" stroke-width=".05" fill="#635dff"/><path d="M602.53 737.88l-4.63-14.26h9.27z" stroke="#635dff" fill="#635dff"/><path d="M675.03 681v4.8m0 4.8v9.6m0 4.82v4.85l.02.03v.02l.03.03h.02l.03.03h.02l.03.02H675.27l.03.02h.02l.02.03.02.03v.02l.02.02V714.5m0 4.32v4.32" stroke="#e81313" fill="none"/><path d="M675.5 681h-.95v-.5h.95z" stroke="#e81313" stroke-width=".05" fill="#e81313"/><path d="M675.4 737.88l-4.64-14.26h9.27z" stroke="#e81313" fill="#e81313"/><path d="M560 867.5a8 8 0 0 1 8-8h144a8 8 0 0 1 8 8v144a8 8 0 0 1-8 8H568a8 8 0 0 1-8-8z" stroke="#333" fill="#c3f7c8"/><use xlink:href="#d" transform="matrix(1,0,0,1,565,864.500074324786) translate(19.599999999999994 65.9625)"/><use xlink:href="#e" transform="matrix(1,0,0,1,565,864.500074324786) translate(56.55 65.9625)"/><use xlink:href="#f" transform="matrix(1,0,0,1,565,864.500074324786) translate(45.025 87.5625)"/><use xlink:href="#q" transform="matrix(1,0,0,1,565,864.500074324786) translate(84.975 87.5625)"/><path d="M602.92 800.5v4.68m0 4.68v9.36m0 4.68v9.36m0 4.68v4.68M602.92 800.5v-.5" stroke="#635dff" fill="none"/><path d="M602.92 857.38l-4.64-14.26h9.27z" stroke="#635dff" fill="#635dff"/><path d="M675.03 800.5v4.68m0 4.68v9.36m0 4.68v9.36m0 4.68v4.68M675.03 800.5v-.5" stroke="#e81313" fill="none"/><path d="M675.03 857.38l-4.64-14.26h9.26z" stroke="#e81313" fill="#e81313"/><path d="M979.5 847.5a8 8 0 0 1 8-8h144a8 8 0 0 1 8 8v144a8 8 0 0 1-8 8h-144a8 8 0 0 1-8-8z" stroke="#333" fill="#ffdda6"/><use xlink:href="#r" transform="matrix(1,0,0,1,984.5000246528296,844.500074324786) translate(21.624999999999993 80.025)"/><use xlink:href="#s" transform="matrix(1,0,0,1,984.5000246528296,844.500074324786) translate(69.475 80.025)"/><path d="M721 903.75h67a12 12 0 0 0 12-12V72.5a12 12 0 0 0-12-12H652a12 12 0 0 0-12 12v11.62" stroke="#ba23f6" fill="none"/><path d="M721 904.23h-.5v-.96h.5z" stroke="#ba23f6" stroke-width=".05" fill="#ba23f6"/><path d="M640 98.88l-4.63-14.26h9.26z" stroke="#ba23f6" fill="#ba23f6"/><use xlink:href="#t" transform="matrix(1,0,0,1,808,445.12156604463917) translate(0.004999999999999005 14.4)"/><path d="M721 976h225a12 12 0 0 0 12-12v-39.88a4.62 4.62 0 0 1 4.62-4.62" stroke="#008573" fill="none"/><path d="M721 976.48h-.5v-.96h.5z" stroke="#008573" stroke-width=".05" fill="#008573"/><path d="M977.38 919.5l-14.26 4.63v-9.26z" stroke="#008573" fill="#008573"/><use xlink:href="#u" transform="matrix(1,0,0,1,807.7163026587797,979.9999996527948) translate(0.005000000000002558 14.4)"/><path d="M979.5 628a8 8 0 0 1 8-8h144a8 8 0 0 1 8 8v144a8 8 0 0 1-8 8h-144a8 8 0 0 1-8-8z" stroke="#333" fill="#ced4db"/><use xlink:href="#v" transform="matrix(1,0,0,1,984.5000246528296,625) translate(16.599999999999994 80.025)"/><use xlink:href="#w" transform="matrix(1,0,0,1,984.5000246528296,625) translate(68.55 80.025)"/><path d="M1279.5 628a8 8 0 0 1 8-8h144a8 8 0 0 1 8 8v144a8 8 0 0 1-8 8h-144a8 8 0 0 1-8-8z" stroke="#333" fill="#cfe4ff"/><use xlink:href="#x" transform="matrix(1,0,0,1,1284.5000246528296,625) translate(30.099999999999994 80.025)"/><use xlink:href="#y" transform="matrix(1,0,0,1,1284.5000246528296,625) translate(72.1 80.025)"/><path d="M1059.5 838.5v-41.62" stroke="#fff" fill="none"/><path d="M1059.97 839h-.94v-.5h.94z" stroke="#fff" stroke-width=".05" fill="#fff"/><path d="M1059.5 782.12l4.63 14.26h-9.27z" stroke="#fff" fill="#fff"/><use xlink:href="#z" transform="matrix(1,0,0,1,1067.5000246528293,804.735400637924) translate(0.005000000000002558 14.4)"/><use xlink:href="#A" transform="matrix(1,0,0,1,1067.5000246528293,804.735400637924) translate(25.005000000000003 14.4)"/><use xlink:href="#B" transform="matrix(1,0,0,1,1067.5000246528293,804.735400637924) translate(50.955000000000005 14.4)"/><path d="M1140.5 736.33h122.12" stroke="#fff" fill="none"/><path d="M1140.5 736.8h-.5v-.94h.5z" stroke="#fff" stroke-width=".05" fill="#fff"/><path d="M1277.38 736.33l-14.26 4.64v-9.27z" stroke="#fff" fill="#fff"/><use xlink:href="#z" transform="matrix(1,0,0,1,1154.0587461248942,710.7333348379804) translate(0.005000000000002558 14.4)"/><use xlink:href="#A" transform="matrix(1,0,0,1,1154.0587461248942,710.7333348379804) translate(25.005000000000003 14.4)"/><use xlink:href="#B" transform="matrix(1,0,0,1,1154.0587461248942,710.7333348379804) translate(50.955000000000005 14.4)"/><path d="M1278.5 677h-122.12" stroke="#fff" fill="none"/><path d="M1279 677.48h-.5v-.96h.5z" stroke="#fff" stroke-width=".05" fill="#fff"/><path d="M1141.62 677l14.26-4.63v9.26z" stroke="#fff" fill="#fff"/><path d="M1278.5 648.33h-122.12" stroke="#fff" fill="none"/><path d="M1279 648.8h-.5v-.94h.5z" stroke="#fff" stroke-width=".05" fill="#fff"/><path d="M1141.62 648.33l14.26-4.63v9.27z" stroke="#fff" fill="#fff"/><use xlink:href="#C" transform="matrix(1,0,0,1,1176.8090160641289,622.7333332175832) translate(0.005000000000002558 14.4)"/><use xlink:href="#D" transform="matrix(1,0,0,1,1176.8090160641289,622.7333332175832) translate(41.955000000000005 14.4)"/><use xlink:href="#E" transform="matrix(1,0,0,1,1176.8090160641289,622.7333332175832) translate(58.955000000000005 14.4)"/><use xlink:href="#F" transform="matrix(1,0,0,1,1176.8090160641289,622.7333332175832) translate(68.95500000000001 14.4)"/><path d="M721 955.62h187a12 12 0 0 0 12-12V162a12 12 0 0 0-12-12H736.88" stroke="#635dff" fill="none"/><path d="M721 956.1h-.5v-.95h.5z" stroke="#635dff" stroke-width=".05" fill="#635dff"/><path d="M722.12 150l14.26-4.65v9.28z" stroke="#635dff" fill="#635dff"/><path d="M632.7 220v27.5a12 12 0 0 1-12 12h-5.2a12 12 0 0 0-12 12v11.62" stroke="#635dff" fill="none"/><path d="M633.16 220h-.94v-.5h.94z" stroke="#635dff" stroke-width=".05" fill="#635dff"/><path d="M603.5 297.88l-4.63-14.26h9.26z" stroke="#635dff" fill="#635dff"/><path d="M647.32 220v27.5a12 12 0 0 0 12 12h9.18a12 12 0 0 1 12 12v11.62" stroke="#e81313" fill="none"/><path d="M647.8 220h-.95v-.5h.95z" stroke="#e81313" stroke-width=".05" fill="#e81313"/><path d="M680.5 297.88l-4.63-14.26h9.26z" stroke="#e81313" fill="#e81313"/><path d="M560 109a8 8 0 0 1 8-8h144a8 8 0 0 1 8 8v102a8 8 0 0 1-8 8H568a8 8 0 0 1-8-8z" stroke="#333" fill="#fff7a1"/><g><use xlink:href="#G" transform="matrix(1,0,0,1,565,106) translate(8.075000000000003 58.68125)"/><use xlink:href="#H" transform="matrix(1,0,0,1,565,106) translate(53.075 58.68125)"/><use xlink:href="#I" transform="matrix(1,0,0,1,565,106) translate(68.075 58.68125)"/><use xlink:href="#J" transform="matrix(1,0,0,1,565,106) translate(97.025 58.68125)"/><use xlink:href="#K" transform="matrix(1,0,0,1,565,106) translate(107.025 58.68125)"/></g><path d="M721 925.46h167a12 12 0 0 0 12-12v-732.1a12 12 0 0 0-12-12H736.88" stroke="#e81313" fill="none"/><path d="M721 925.94h-.5V925h.5z" stroke="#e81313" stroke-width=".05" fill="#e81313"/><path d="M722.12 169.36l14.26-4.64V174z" stroke="#e81313" fill="#e81313"/><path d="M140 109a8 8 0 0 1 8-8h144a8 8 0 0 1 8 8v102a8 8 0 0 1-8 8H148a8 8 0 0 1-8-8z" stroke="#333" fill="#cbc2a3"/><g><use xlink:href="#G" transform="matrix(1,0,0,1,145,106) translate(5.575000000000003 48.4625)"/><use xlink:href="#H" transform="matrix(1,0,0,1,145,106) translate(50.575 48.4625)"/><use xlink:href="#L" transform="matrix(1,0,0,1,145,106) translate(65.575 48.4625)"/><use xlink:href="#M" transform="matrix(1,0,0,1,145,106) translate(31.574999999999996 70.0625)"/><use xlink:href="#N" transform="matrix(1,0,0,1,145,106) translate(73.475 70.0625)"/></g><path d="M681.46 60.5H232a12 12 0 0 0-12 12v11.62M681.44 60.5h.52" stroke="#ba23f6" fill="none"/><path d="M220 98.88l-4.63-14.26h9.26z" stroke="#ba23f6" fill="#ba23f6"/><path d="M220 220V279.62" stroke="#635dff" fill="none"/><path d="M220.47 220h-.94v-.5h.94z" stroke="#635dff" stroke-width=".05" fill="#635dff"/><path d="M220 294.38l-4.63-14.26h9.26z" stroke="#635dff" fill="#635dff"/><g><use xlink:href="#j" transform="matrix(1,0,0,1,228,246.9499996323695) translate(0.0049999999999954525 14.4)"/><use xlink:href="#k" transform="matrix(1,0,0,1,228,246.9499996323695) translate(43.905 14.4)"/><use xlink:href="#l" transform="matrix(1,0,0,1,228,246.9499996323695) translate(97.805 14.4)"/></g><defs><path fill="#333" d="M30-248c87 1 191-15 191 75 0 78-77 80-158 76V0H30v-248zm33 125c57 0 124 11 124-50 0-59-68-47-124-48v98" id="O"/><path fill="#333" d="M24-231v-30h32v30H24zM24 0v-190h32V0H24" id="P"/><path fill="#333" d="M141 0L90-78 38 0H4l68-98-65-92h35l48 74 47-74h35l-64 92 68 98h-35" id="Q"/><path fill="#333" d="M100-194c63 0 86 42 84 106H49c0 40 14 67 53 68 26 1 43-12 49-29l28 8c-11 28-37 45-77 45C44 4 14-33 15-96c1-61 26-98 85-98zm52 81c6-60-76-77-97-28-3 7-6 17-6 28h103" id="R"/><path fill="#333" d="M24 0v-261h32V0H24" id="S"/><g id="a"><use transform="matrix(0.05,0,0,0.05,0,0)" xlink:href="#O"/><use transform="matrix(0.05,0,0,0.05,12,0)" xlink:href="#P"/><use transform="matrix(0.05,0,0,0.05,15.949999999999998,0)" xlink:href="#Q"/><use transform="matrix(0.05,0,0,0.05,24.95,0)" xlink:href="#R"/><use transform="matrix(0.05,0,0,0.05,34.95,0)" xlink:href="#S"/></g><path fill="#333" d="M16-82v-28h88v28H16" id="T"/><path fill="#333" d="M18-27v-27l151-64-151-65v-27l175 74v36" id="U"/><g id="b"><use transform="matrix(0.05,0,0,0.05,0,0)" xlink:href="#T"/><use transform="matrix(0.05,0,0,0.05,5.95,0)" xlink:href="#U"/></g><path fill="#333" d="M233-177c-1 41-23 64-60 70L243 0h-38l-65-103H63V0H30v-248c88 3 205-21 203 71zM63-129c60-2 137 13 137-47 0-61-80-42-137-45v92" id="V"/><path fill="#333" d="M141-36C126-15 110 5 73 4 37 3 15-17 15-53c-1-64 63-63 125-63 3-35-9-54-41-54-24 1-41 7-42 31l-33-3c5-37 33-52 76-52 45 0 72 20 72 64v82c-1 20 7 32 28 27v20c-31 9-61-2-59-35zM48-53c0 20 12 33 32 33 41-3 63-29 60-74-43 2-92-5-92 41" id="W"/><path fill="#333" d="M179-190L93 31C79 59 56 82 12 73V49c39 6 53-20 64-50L1-190h34L92-34l54-156h33" id="X"/><g id="c"><use transform="matrix(0.05,0,0,0.05,0,0)" xlink:href="#V"/><use transform="matrix(0.05,0,0,0.05,12.950000000000001,0)" xlink:href="#W"/><use transform="matrix(0.05,0,0,0.05,22.950000000000003,0)" xlink:href="#X"/></g><g id="d"><use transform="matrix(0.05,0,0,0.05,0,0)" xlink:href="#V"/><use transform="matrix(0.05,0,0,0.05,12.950000000000001,0)" xlink:href="#W"/><use transform="matrix(0.05,0,0,0.05,22.950000000000003,0)" xlink:href="#X"/></g><path fill="#333" d="M210-169c-67 3-38 105-44 169h-31v-121c0-29-5-50-35-48C34-165 62-65 56 0H25l-1-190h30c1 10-1 24 2 32 10-44 99-50 107 0 11-21 27-35 58-36 85-2 47 119 55 194h-31v-121c0-29-5-49-35-48" id="Y"/><path fill="#333" d="M114-163C36-179 61-72 57 0H25l-1-190h30c1 12-1 29 2 39 6-27 23-49 58-41v29" id="Z"/><path fill="#333" d="M96-169c-40 0-48 33-48 73s9 75 48 75c24 0 41-14 43-38l32 2c-6 37-31 61-74 61-59 0-76-41-82-99-10-93 101-131 147-64 4 7 5 14 7 22l-32 3c-4-21-16-35-41-35" id="aa"/><path fill="#333" d="M106-169C34-169 62-67 57 0H25v-261h32l-1 103c12-21 28-36 61-36 89 0 53 116 60 194h-32v-121c2-32-8-49-39-48" id="ab"/><path fill="#333" d="M117-194c89-4 53 116 60 194h-32v-121c0-31-8-49-39-48C34-167 62-67 57 0H25l-1-190h30c1 10-1 24 2 32 11-22 29-35 61-36" id="ac"/><path fill="#333" d="M177-190C167-65 218 103 67 71c-23-6-38-20-44-43l32-5c15 47 100 32 89-28v-30C133-14 115 1 83 1 29 1 15-40 15-95c0-56 16-97 71-98 29-1 48 16 59 35 1-10 0-23 2-32h30zM94-22c36 0 50-32 50-73 0-42-14-75-50-75-39 0-46 34-46 75s6 73 46 73" id="ad"/><g id="e"><use transform="matrix(0.05,0,0,0.05,0,0)" xlink:href="#Y"/><use transform="matrix(0.05,0,0,0.05,14.950000000000001,0)" xlink:href="#W"/><use transform="matrix(0.05,0,0,0.05,24.950000000000003,0)" xlink:href="#Z"/><use transform="matrix(0.05,0,0,0.05,30.900000000000002,0)" xlink:href="#aa"/><use transform="matrix(0.05,0,0,0.05,39.900000000000006,0)" xlink:href="#ab"/><use transform="matrix(0.05,0,0,0.05,49.900000000000006,0)" xlink:href="#P"/><use transform="matrix(0.05,0,0,0.05,53.85,0)" xlink:href="#ac"/><use transform="matrix(0.05,0,0,0.05,63.85,0)" xlink:href="#ad"/></g><path fill="#333" d="M100-194c62-1 85 37 85 99 1 63-27 99-86 99S16-35 15-95c0-66 28-99 85-99zM99-20c44 1 53-31 53-75 0-43-8-75-51-75s-53 32-53 75 10 74 51 75" id="ae"/><g id="f"><use transform="matrix(0.05,0,0,0.05,0,0)" xlink:href="#aa"/><use transform="matrix(0.05,0,0,0.05,9,0)" xlink:href="#ae"/><use transform="matrix(0.05,0,0,0.05,19,0)" xlink:href="#Z"/><use transform="matrix(0.05,0,0,0.05,24.95,0)" xlink:href="#R"/></g><path fill="#333" d="M158-156l-14 65h45v19h-49L124 0h-19l15-72H56L41 0H22l15-72H2v-19h39l14-65H11v-19h48l15-71h20l-16 71h64l16-71h19l-16 71h37v19h-40zm-83 0L61-91h63l14-65H75" id="af"/><path fill="#333" d="M27 0v-27h64v-190l-56 39v-29l58-41h29v221h61V0H27" id="ag"/><g id="g"><use transform="matrix(0.05,0,0,0.05,0,0)" xlink:href="#af"/><use transform="matrix(0.05,0,0,0.05,10,0)" xlink:href="#ag"/></g><path fill="#333" d="M101-251c82-7 93 87 43 132L82-64C71-53 59-42 53-27h129V0H18c2-99 128-94 128-182 0-28-16-43-45-43s-46 15-49 41l-32-3c6-41 34-60 81-64" id="ah"/><g id="h"><use transform="matrix(0.05,0,0,0.05,0,0)" xlink:href="#af"/><use transform="matrix(0.05,0,0,0.05,10,0)" xlink:href="#ah"/></g><path fill="#333" d="M33 0v-38h34V0H33" id="ai"/><g id="i"><use transform="matrix(0.05,0,0,0.05,0,0)" xlink:href="#ai"/><use transform="matrix(0.05,0,0,0.05,5,0)" xlink:href="#ai"/><use transform="matrix(0.05,0,0,0.05,10,0)" xlink:href="#ai"/></g><path fill="#635dff" d="M30-248c87 1 191-15 191 75 0 78-77 80-158 76V0H30v-248zm33 125c57 0 124 11 124-50 0-59-68-47-124-48v98" id="aj"/><path fill="#635dff" d="M24-231v-30h32v30H24zM24 0v-190h32V0H24" id="ak"/><path fill="#635dff" d="M141 0L90-78 38 0H4l68-98-65-92h35l48 74 47-74h35l-64 92 68 98h-35" id="al"/><path fill="#635dff" d="M100-194c63 0 86 42 84 106H49c0 40 14 67 53 68 26 1 43-12 49-29l28 8c-11 28-37 45-77 45C44 4 14-33 15-96c1-61 26-98 85-98zm52 81c6-60-76-77-97-28-3 7-6 17-6 28h103" id="am"/><path fill="#635dff" d="M24 0v-261h32V0H24" id="an"/><g id="j"><use transform="matrix(0.05,0,0,0.05,0,0)" xlink:href="#aj"/><use transform="matrix(0.05,0,0,0.05,12,0)" xlink:href="#ak"/><use transform="matrix(0.05,0,0,0.05,15.949999999999998,0)" xlink:href="#al"/><use transform="matrix(0.05,0,0,0.05,24.95,0)" xlink:href="#am"/><use transform="matrix(0.05,0,0,0.05,34.95,0)" xlink:href="#an"/></g><path fill="#635dff" d="M212-179c-10-28-35-45-73-45-59 0-87 40-87 99 0 60 29 101 89 101 43 0 62-24 78-52l27 14C228-24 195 4 139 4 59 4 22-46 18-125c-6-104 99-153 187-111 19 9 31 26 39 46" id="ao"/><path fill="#635dff" d="M100-194c62-1 85 37 85 99 1 63-27 99-86 99S16-35 15-95c0-66 28-99 85-99zM99-20c44 1 53-31 53-75 0-43-8-75-51-75s-53 32-53 75 10 74 51 75" id="ap"/><path fill="#635dff" d="M114-163C36-179 61-72 57 0H25l-1-190h30c1 12-1 29 2 39 6-27 23-49 58-41v29" id="aq"/><path fill="#635dff" d="M85-194c31 0 48 13 60 33l-1-100h32l1 261h-30c-2-10 0-23-3-31C134-8 116 4 85 4 32 4 16-35 15-94c0-66 23-100 70-100zm9 24c-40 0-46 34-46 75 0 40 6 74 45 74 42 0 51-32 51-76 0-42-9-74-50-73" id="ar"/><g id="k"><use transform="matrix(0.05,0,0,0.05,0,0)" xlink:href="#ao"/><use transform="matrix(0.05,0,0,0.05,12.950000000000001,0)" xlink:href="#ap"/><use transform="matrix(0.05,0,0,0.05,22.950000000000003,0)" xlink:href="#ap"/><use transform="matrix(0.05,0,0,0.05,32.95,0)" xlink:href="#aq"/><use transform="matrix(0.05,0,0,0.05,38.900000000000006,0)" xlink:href="#ar"/></g><path fill="#635dff" d="M87 75C49 33 22-17 22-94c0-76 28-126 65-167h31c-38 41-64 92-64 168S80 34 118 75H87" id="as"/><path fill="#635dff" d="M68-38c1 34 0 65-14 84H32c9-13 17-26 17-46H33v-38h35" id="at"/><path fill="#635dff" d="M179-190L93 31C79 59 56 82 12 73V49c39 6 53-20 64-50L1-190h34L92-34l54-156h33" id="au"/><path fill="#635dff" d="M33-261c38 41 65 92 65 168S71 34 33 75H2C39 34 66-17 66-93S39-220 2-261h31" id="av"/><g id="l"><use transform="matrix(0.05,0,0,0.05,0,0)" xlink:href="#as"/><use transform="matrix(0.05,0,0,0.05,5.95,0)" xlink:href="#al"/><use transform="matrix(0.05,0,0,0.05,14.949999999999998,0)" xlink:href="#at"/><use transform="matrix(0.05,0,0,0.05,19.95,0)" xlink:href="#au"/><use transform="matrix(0.05,0,0,0.05,28.950000000000003,0)" xlink:href="#av"/></g><path fill="#e81313" d="M233-177c-1 41-23 64-60 70L243 0h-38l-65-103H63V0H30v-248c88 3 205-21 203 71zM63-129c60-2 137 13 137-47 0-61-80-42-137-45v92" id="aw"/><path fill="#e81313" d="M141-36C126-15 110 5 73 4 37 3 15-17 15-53c-1-64 63-63 125-63 3-35-9-54-41-54-24 1-41 7-42 31l-33-3c5-37 33-52 76-52 45 0 72 20 72 64v82c-1 20 7 32 28 27v20c-31 9-61-2-59-35zM48-53c0 20 12 33 32 33 41-3 63-29 60-74-43 2-92-5-92 41" id="ax"/><path fill="#e81313" d="M179-190L93 31C79 59 56 82 12 73V49c39 6 53-20 64-50L1-190h34L92-34l54-156h33" id="ay"/><g id="m"><use transform="matrix(0.05,0,0,0.05,0,0)" xlink:href="#aw"/><use transform="matrix(0.05,0,0,0.05,12.950000000000001,0)" xlink:href="#ax"/><use transform="matrix(0.05,0,0,0.05,22.950000000000003,0)" xlink:href="#ay"/></g><path fill="#e81313" d="M87 75C49 33 22-17 22-94c0-76 28-126 65-167h31c-38 41-64 92-64 168S80 34 118 75H87" id="az"/><path fill="#e81313" d="M141 0L90-78 38 0H4l68-98-65-92h35l48 74 47-74h35l-64 92 68 98h-35" id="aA"/><path fill="#e81313" d="M68-38c1 34 0 65-14 84H32c9-13 17-26 17-46H33v-38h35" id="aB"/><g id="n"><use transform="matrix(0.05,0,0,0.05,0,0)" xlink:href="#az"/><use transform="matrix(0.05,0,0,0.05,5.95,0)" xlink:href="#aA"/><use transform="matrix(0.05,0,0,0.05,14.949999999999998,0)" xlink:href="#aB"/></g><g id="o"><use transform="matrix(0.05,0,0,0.05,0,0)" xlink:href="#ay"/><use transform="matrix(0.05,0,0,0.05,7.65,0)" xlink:href="#aB"/></g><path fill="#e81313" d="M9 0v-24l116-142H16v-24h144v24L44-24h123V0H9" id="aC"/><path fill="#e81313" d="M33-261c38 41 65 92 65 168S71 34 33 75H2C39 34 66-17 66-93S39-220 2-261h31" id="aD"/><g id="p"><use transform="matrix(0.05,0,0,0.05,0,0)" xlink:href="#aC"/><use transform="matrix(0.05,0,0,0.05,9,0)" xlink:href="#aD"/></g><g id="q"><use transform="matrix(0.05,0,0,0.05,0,0)" xlink:href="#af"/><use transform="matrix(0.05,0,0,0.05,10,0)" xlink:href="#ac"/></g><path fill="#333" d="M212-179c-10-28-35-45-73-45-59 0-87 40-87 99 0 60 29 101 89 101 43 0 62-24 78-52l27 14C228-24 195 4 139 4 59 4 22-46 18-125c-6-104 99-153 187-111 19 9 31 26 39 46" id="aE"/><g id="r"><use transform="matrix(0.05,0,0,0.05,0,0)" xlink:href="#aE"/><use transform="matrix(0.05,0,0,0.05,12.950000000000001,0)" xlink:href="#ae"/><use transform="matrix(0.05,0,0,0.05,22.950000000000003,0)" xlink:href="#S"/><use transform="matrix(0.05,0,0,0.05,26.900000000000002,0)" xlink:href="#ae"/><use transform="matrix(0.05,0,0,0.05,36.900000000000006,0)" xlink:href="#Z"/></g><path fill="#333" d="M240 0l2-218c-23 76-54 145-80 218h-23L58-218 59 0H30v-248h44l77 211c21-75 51-140 76-211h43V0h-30" id="aF"/><path fill="#333" d="M85-194c31 0 48 13 60 33l-1-100h32l1 261h-30c-2-10 0-23-3-31C134-8 116 4 85 4 32 4 16-35 15-94c0-66 23-100 70-100zm9 24c-40 0-46 34-46 75 0 40 6 74 45 74 42 0 51-32 51-76 0-42-9-74-50-73" id="aG"/><path fill="#333" d="M84 4C-5 8 30-112 23-190h32v120c0 31 7 50 39 49 72-2 45-101 50-169h31l1 190h-30c-1-10 1-25-2-33-11 22-28 36-60 37" id="aH"/><g id="s"><use transform="matrix(0.05,0,0,0.05,0,0)" xlink:href="#aF"/><use transform="matrix(0.05,0,0,0.05,14.950000000000001,0)" xlink:href="#ae"/><use transform="matrix(0.05,0,0,0.05,24.950000000000003,0)" xlink:href="#aG"/><use transform="matrix(0.05,0,0,0.05,34.95,0)" xlink:href="#aH"/><use transform="matrix(0.05,0,0,0.05,44.95,0)" xlink:href="#S"/><use transform="matrix(0.05,0,0,0.05,48.900000000000006,0)" xlink:href="#R"/></g><path fill="#ba23f6" d="M85-194c31 0 48 13 60 33l-1-100h32l1 261h-30c-2-10 0-23-3-31C134-8 116 4 85 4 32 4 16-35 15-94c0-66 23-100 70-100zm9 24c-40 0-46 34-46 75 0 40 6 74 45 74 42 0 51-32 51-76 0-42-9-74-50-73" id="aI"/><path fill="#ba23f6" d="M100-194c62-1 85 37 85 99 1 63-27 99-86 99S16-35 15-95c0-66 28-99 85-99zM99-20c44 1 53-31 53-75 0-43-8-75-51-75s-53 32-53 75 10 74 51 75" id="aJ"/><path fill="#ba23f6" d="M117-194c89-4 53 116 60 194h-32v-121c0-31-8-49-39-48C34-167 62-67 57 0H25l-1-190h30c1 10-1 24 2 32 11-22 29-35 61-36" id="aK"/><path fill="#ba23f6" d="M100-194c63 0 86 42 84 106H49c0 40 14 67 53 68 26 1 43-12 49-29l28 8c-11 28-37 45-77 45C44 4 14-33 15-96c1-61 26-98 85-98zm52 81c6-60-76-77-97-28-3 7-6 17-6 28h103" id="aL"/><path fill="#ba23f6" d="M103-251c84 0 111 97 45 133-19 10-37 24-39 52H78c0-63 77-55 77-114 0-30-21-42-52-43-32 0-53 17-56 46l-32-2c7-45 34-72 88-72zM77 0v-35h34V0H77" id="aM"/><g id="t"><use transform="matrix(0.05,0,0,0.05,0,0)" xlink:href="#aI"/><use transform="matrix(0.05,0,0,0.05,10,0)" xlink:href="#aJ"/><use transform="matrix(0.05,0,0,0.05,20,0)" xlink:href="#aK"/><use transform="matrix(0.05,0,0,0.05,30,0)" xlink:href="#aL"/><use transform="matrix(0.05,0,0,0.05,40,0)" xlink:href="#aM"/></g><path fill="#008573" d="M30-248c118-7 216 8 213 122C240-48 200 0 122 0H30v-248zM63-27c89 8 146-16 146-99s-60-101-146-95v194" id="aN"/><path fill="#008573" d="M24-231v-30h32v30H24zM24 0v-190h32V0H24" id="aO"/><path fill="#008573" d="M135-143c-3-34-86-38-87 0 15 53 115 12 119 90S17 21 10-45l28-5c4 36 97 45 98 0-10-56-113-15-118-90-4-57 82-63 122-42 12 7 21 19 24 35" id="aP"/><path fill="#008573" d="M59-47c-2 24 18 29 38 22v24C64 9 27 4 27-40v-127H5v-23h24l9-43h21v43h35v23H59v120" id="aQ"/><path fill="#008573" d="M141-36C126-15 110 5 73 4 37 3 15-17 15-53c-1-64 63-63 125-63 3-35-9-54-41-54-24 1-41 7-42 31l-33-3c5-37 33-52 76-52 45 0 72 20 72 64v82c-1 20 7 32 28 27v20c-31 9-61-2-59-35zM48-53c0 20 12 33 32 33 41-3 63-29 60-74-43 2-92-5-92 41" id="aR"/><path fill="#008573" d="M117-194c89-4 53 116 60 194h-32v-121c0-31-8-49-39-48C34-167 62-67 57 0H25l-1-190h30c1 10-1 24 2 32 11-22 29-35 61-36" id="aS"/><path fill="#008573" d="M96-169c-40 0-48 33-48 73s9 75 48 75c24 0 41-14 43-38l32 2c-6 37-31 61-74 61-59 0-76-41-82-99-10-93 101-131 147-64 4 7 5 14 7 22l-32 3c-4-21-16-35-41-35" id="aT"/><path fill="#008573" d="M100-194c63 0 86 42 84 106H49c0 40 14 67 53 68 26 1 43-12 49-29l28 8c-11 28-37 45-77 45C44 4 14-33 15-96c1-61 26-98 85-98zm52 81c6-60-76-77-97-28-3 7-6 17-6 28h103" id="aU"/><g id="u"><use transform="matrix(0.05,0,0,0.05,0,0)" xlink:href="#aN"/><use transform="matrix(0.05,0,0,0.05,12.950000000000001,0)" xlink:href="#aO"/><use transform="matrix(0.05,0,0,0.05,16.900000000000002,0)" xlink:href="#aP"/><use transform="matrix(0.05,0,0,0.05,25.900000000000002,0)" xlink:href="#aQ"/><use transform="matrix(0.05,0,0,0.05,30.900000000000002,0)" xlink:href="#aR"/><use transform="matrix(0.05,0,0,0.05,40.900000000000006,0)" xlink:href="#aS"/><use transform="matrix(0.05,0,0,0.05,50.900000000000006,0)" xlink:href="#aT"/><use transform="matrix(0.05,0,0,0.05,59.900000000000006,0)" xlink:href="#aU"/></g><path fill="#333" d="M101-251c68 0 85 55 85 127S166 4 100 4C33 4 14-52 14-124c0-73 17-127 87-127zm-1 229c47 0 54-49 54-102s-4-102-53-102c-51 0-55 48-55 102 0 53 5 102 54 102" id="aV"/><path fill="#333" d="M194 0L95-120 63-95V0H30v-248h33v124l119-124h40L117-140 236 0h-42" id="aW"/><g id="v"><use transform="matrix(0.05,0,0,0.05,0,0)" xlink:href="#aF"/><use transform="matrix(0.05,0,0,0.05,14.950000000000001,0)" xlink:href="#ag"/><use transform="matrix(0.05,0,0,0.05,24.950000000000003,0)" xlink:href="#aV"/><use transform="matrix(0.05,0,0,0.05,34.95,0)" xlink:href="#aW"/></g><g id="w"><use transform="matrix(0.05,0,0,0.05,0,0)" xlink:href="#aF"/><use transform="matrix(0.05,0,0,0.05,14.950000000000001,0)" xlink:href="#R"/><use transform="matrix(0.05,0,0,0.05,24.950000000000003,0)" xlink:href="#Y"/><use transform="matrix(0.05,0,0,0.05,39.900000000000006,0)" xlink:href="#ae"/><use transform="matrix(0.05,0,0,0.05,49.900000000000006,0)" xlink:href="#Z"/><use transform="matrix(0.05,0,0,0.05,55.85,0)" xlink:href="#X"/></g><path fill="#333" d="M137 0h-34L2-248h35l83 218 83-218h36" id="aX"/><path fill="#333" d="M143 4C61 4 22-44 18-125c-5-107 100-154 193-111 17 8 29 25 37 43l-32 9c-13-25-37-40-76-40-61 0-88 39-88 99 0 61 29 100 91 101 35 0 62-11 79-27v-45h-74v-28h105v86C228-13 192 4 143 4" id="aY"/><path fill="#333" d="M205 0l-28-72H64L36 0H1l101-248h38L239 0h-34zm-38-99l-47-123c-12 45-31 82-46 123h93" id="aZ"/><g id="x"><use transform="matrix(0.05,0,0,0.05,0,0)" xlink:href="#aX"/><use transform="matrix(0.05,0,0,0.05,12,0)" xlink:href="#aY"/><use transform="matrix(0.05,0,0,0.05,26,0)" xlink:href="#aZ"/></g><path fill="#333" d="M30-248c118-7 216 8 213 122C240-48 200 0 122 0H30v-248zM63-27c89 8 146-16 146-99s-60-101-146-95v194" id="ba"/><path fill="#333" d="M108 0H70L1-190h34L89-25l56-165h34" id="bb"/><g id="y"><use transform="matrix(0.05,0,0,0.05,0,0)" xlink:href="#ba"/><use transform="matrix(0.05,0,0,0.05,12.950000000000001,0)" xlink:href="#Z"/><use transform="matrix(0.05,0,0,0.05,18.900000000000002,0)" xlink:href="#P"/><use transform="matrix(0.05,0,0,0.05,22.85,0)" xlink:href="#bb"/><use transform="matrix(0.05,0,0,0.05,31.85,0)" xlink:href="#R"/><use transform="matrix(0.05,0,0,0.05,41.85,0)" xlink:href="#Z"/></g><path fill="#fff" d="M27 0v-27h64v-190l-56 39v-29l58-41h29v221h61V0H27" id="bc"/><path fill="#fff" d="M101-251c68 0 85 55 85 127S166 4 100 4C33 4 14-52 14-124c0-73 17-127 87-127zm-1 229c47 0 54-49 54-102s-4-102-53-102c-51 0-55 48-55 102 0 53 5 102 54 102" id="bd"/><g id="z"><use transform="matrix(0.05,0,0,0.05,0,0)" xlink:href="#bc"/><use transform="matrix(0.05,0,0,0.05,10,0)" xlink:href="#bd"/></g><path fill="#fff" d="M160-131c35 5 61 23 61 61C221 17 115-2 30 0v-248c76 3 177-17 177 60 0 33-19 50-47 57zm-97-11c50-1 110 9 110-42 0-47-63-36-110-37v79zm0 115c55-2 124 14 124-45 0-56-70-42-124-44v89" id="be"/><path fill="#fff" d="M24-231v-30h32v30H24zM24 0v-190h32V0H24" id="bf"/><path fill="#fff" d="M59-47c-2 24 18 29 38 22v24C64 9 27 4 27-40v-127H5v-23h24l9-43h21v43h35v23H59v120" id="bg"/><g id="A"><use transform="matrix(0.05,0,0,0.05,0,0)" xlink:href="#be"/><use transform="matrix(0.05,0,0,0.05,12,0)" xlink:href="#bf"/><use transform="matrix(0.05,0,0,0.05,15.949999999999998,0)" xlink:href="#bg"/></g><path fill="#fff" d="M212-179c-10-28-35-45-73-45-59 0-87 40-87 99 0 60 29 101 89 101 43 0 62-24 78-52l27 14C228-24 195 4 139 4 59 4 22-46 18-125c-6-104 99-153 187-111 19 9 31 26 39 46" id="bh"/><path fill="#fff" d="M100-194c62-1 85 37 85 99 1 63-27 99-86 99S16-35 15-95c0-66 28-99 85-99zM99-20c44 1 53-31 53-75 0-43-8-75-51-75s-53 32-53 75 10 74 51 75" id="bi"/><path fill="#fff" d="M24 0v-261h32V0H24" id="bj"/><path fill="#fff" d="M114-163C36-179 61-72 57 0H25l-1-190h30c1 12-1 29 2 39 6-27 23-49 58-41v29" id="bk"/><g id="B"><use transform="matrix(0.05,0,0,0.05,0,0)" xlink:href="#bh"/><use transform="matrix(0.05,0,0,0.05,12.950000000000001,0)" xlink:href="#bi"/><use transform="matrix(0.05,0,0,0.05,22.950000000000003,0)" xlink:href="#bj"/><use transform="matrix(0.05,0,0,0.05,26.900000000000002,0)" xlink:href="#bi"/><use transform="matrix(0.05,0,0,0.05,36.900000000000006,0)" xlink:href="#bk"/></g><path fill="#fff" d="M190 0L58-211 59 0H30v-248h39L202-35l-2-213h31V0h-41" id="bl"/><path fill="#fff" d="M100-194c63 0 86 42 84 106H49c0 40 14 67 53 68 26 1 43-12 49-29l28 8c-11 28-37 45-77 45C44 4 14-33 15-96c1-61 26-98 85-98zm52 81c6-60-76-77-97-28-3 7-6 17-6 28h103" id="bm"/><path fill="#fff" d="M141 0L90-78 38 0H4l68-98-65-92h35l48 74 47-74h35l-64 92 68 98h-35" id="bn"/><g id="C"><use transform="matrix(0.05,0,0,0.05,0,0)" xlink:href="#bl"/><use transform="matrix(0.05,0,0,0.05,12.950000000000001,0)" xlink:href="#bm"/><use transform="matrix(0.05,0,0,0.05,22.950000000000003,0)" xlink:href="#bn"/><use transform="matrix(0.05,0,0,0.05,31.950000000000003,0)" xlink:href="#bg"/></g><path fill="#fff" d="M195 0l-74-108L45 0H8l94-129-87-119h37l69 98 67-98h37l-84 118L233 0h-38" id="bo"/><use transform="matrix(0.05,0,0,0.05,0,0)" xlink:href="#bo" id="D"/><path fill="#fff" d="M0 4l72-265h28L28 4H0" id="bp"/><use transform="matrix(0.05,0,0,0.05,0,0)" xlink:href="#bp" id="E"/><path fill="#fff" d="M137-103V0h-34v-103L8-248h37l75 118 75-118h37" id="bq"/><use transform="matrix(0.05,0,0,0.05,0,0)" xlink:href="#bq" id="F"/><g id="G"><use transform="matrix(0.05,0,0,0.05,0,0)" xlink:href="#aG"/><use transform="matrix(0.05,0,0,0.05,10,0)" xlink:href="#ae"/><use transform="matrix(0.05,0,0,0.05,20,0)" xlink:href="#ac"/><use transform="matrix(0.05,0,0,0.05,30,0)" xlink:href="#R"/></g><path fill="#333" d="M103-251c84 0 111 97 45 133-19 10-37 24-39 52H78c0-63 77-55 77-114 0-30-21-42-52-43-32 0-53 17-56 46l-32-2c7-45 34-72 88-72zM77 0v-35h34V0H77" id="br"/><use transform="matrix(0.05,0,0,0.05,0,0)" xlink:href="#br" id="H"/><path fill="#333" d="M101-234c-31-9-42 10-38 44h38v23H63V0H32v-167H5v-23h27c-7-52 17-82 69-68v24" id="bs"/><path fill="#333" d="M59-47c-2 24 18 29 38 22v24C64 9 27 4 27-40v-127H5v-23h24l9-43h21v43h35v23H59v120" id="bt"/><g id="I"><use transform="matrix(0.05,0,0,0.05,0,0)" xlink:href="#S"/><use transform="matrix(0.05,0,0,0.05,3.95,0)" xlink:href="#R"/><use transform="matrix(0.05,0,0,0.05,13.949999999999998,0)" xlink:href="#bs"/><use transform="matrix(0.05,0,0,0.05,18.95,0)" xlink:href="#bt"/></g><path fill="#333" d="M33-154v-36h34v36H33zM33 0v-36h34V0H33" id="bu"/><use transform="matrix(0.05,0,0,0.05,0,0)" xlink:href="#bu" id="J"/><g id="K"><use transform="matrix(0.05,0,0,0.05,0,0)" xlink:href="#Z"/><use transform="matrix(0.05,0,0,0.05,5.95,0)" xlink:href="#P"/><use transform="matrix(0.05,0,0,0.05,9.9,0)" xlink:href="#ad"/><use transform="matrix(0.05,0,0,0.05,19.9,0)" xlink:href="#ab"/><use transform="matrix(0.05,0,0,0.05,29.899999999999995,0)" xlink:href="#bt"/></g><g id="L"><use transform="matrix(0.05,0,0,0.05,0,0)" xlink:href="#P"/><use transform="matrix(0.05,0,0,0.05,3.95,0)" xlink:href="#ac"/><use transform="matrix(0.05,0,0,0.05,13.949999999999998,0)" xlink:href="#aa"/><use transform="matrix(0.05,0,0,0.05,22.95,0)" xlink:href="#Z"/><use transform="matrix(0.05,0,0,0.05,28.899999999999995,0)" xlink:href="#R"/><use transform="matrix(0.05,0,0,0.05,38.9,0)" xlink:href="#Y"/><use transform="matrix(0.05,0,0,0.05,53.85,0)" xlink:href="#R"/><use transform="matrix(0.05,0,0,0.05,63.85,0)" xlink:href="#ac"/><use transform="matrix(0.05,0,0,0.05,73.85,0)" xlink:href="#bt"/></g><path fill="#333" d="M115-194c55 1 70 41 70 98S169 2 115 4C84 4 66-9 55-30l1 105H24l-1-265h31l2 30c10-21 28-34 59-34zm-8 174c40 0 45-34 45-75s-6-73-45-74c-42 0-51 32-51 76 0 43 10 73 51 73" id="bv"/><g id="M"><use transform="matrix(0.05,0,0,0.05,0,0)" xlink:href="#bv"/><use transform="matrix(0.05,0,0,0.05,10,0)" xlink:href="#P"/><use transform="matrix(0.05,0,0,0.05,13.949999999999998,0)" xlink:href="#Q"/><use transform="matrix(0.05,0,0,0.05,22.95,0)" xlink:href="#R"/><use transform="matrix(0.05,0,0,0.05,32.95,0)" xlink:href="#S"/></g><g id="N"><use transform="matrix(0.05,0,0,0.05,0,0)" xlink:href="#aa"/><use transform="matrix(0.05,0,0,0.05,9,0)" xlink:href="#ae"/><use transform="matrix(0.05,0,0,0.05,19,0)" xlink:href="#ae"/><use transform="matrix(0.05,0,0,0.05,29,0)" xlink:href="#Z"/><use transform="matrix(0.05,0,0,0.05,34.95,0)" xlink:href="#aG"/></g></defs></g></svg>